<svg width="18" height="18" viewBox="0 0 18 18" fill="none" xmlns="http://www.w3.org/2000/svg">
<g id="nonicons:error-16" clip-path="url(#clip0_201_1168)">
<circle id="Ellipse 12" cx="9" cy="9" r="8" fill="#F01300"/>
<path id="Vector" fill-rule="evenodd" clip-rule="evenodd" d="M8.42957 0.0171384L7.99532 0.0621384C5.8882 0.272513 3.76532 1.35926 2.32982 2.96351C0.742448 4.73764 -0.0641774 6.93926 0.0100726 9.28489C0.139448 13.336 2.92382 16.7661 6.8737 17.7426C8.03661 18.0237 9.24378 18.071 10.4251 17.8817C11.6064 17.6925 12.7384 17.2704 13.7553 16.6401C15.7553 15.394 17.1868 13.4132 17.7423 11.1231C17.9358 10.3345 17.9808 9.93289 17.9808 9.00026C17.9808 8.06764 17.9358 7.66601 17.7423 6.87739C16.8513 3.23801 13.8543 0.560513 10.1249 0.0722634C9.80545 0.0306384 8.64332 -0.00648656 8.42957 0.0171384ZM9.95957 1.75864C11.2235 1.92403 12.4223 2.41695 13.4369 3.18851C13.8071 3.46526 14.5349 4.19314 14.8117 4.56326C15.4428 5.40814 15.9097 6.40151 16.1212 7.35214C16.3607 8.43783 16.3607 9.56269 16.1212 10.6484C15.6554 12.742 14.1806 14.6005 12.2253 15.5568C11.5202 15.901 10.7662 16.1348 9.98995 16.2498C9.51295 16.3229 8.48695 16.3229 8.00995 16.2498C5.81845 15.9168 3.96895 14.7209 2.80457 12.8826C2.51816 12.4078 2.27925 11.9059 2.09132 11.3841C1.82431 10.6181 1.69296 9.81141 1.7032 9.00026C1.7032 7.83139 1.92932 6.83464 2.42995 5.80526C2.81245 5.02001 3.2017 4.47776 3.83957 3.83989C4.40449 3.25552 5.0703 2.77798 5.80495 2.43026C7.09307 1.80088 8.53876 1.56717 9.95957 1.75864ZM8.6692 4.82651C8.4172 4.90864 8.27432 5.05264 8.20457 5.29339C8.16407 5.43064 8.15957 5.74451 8.16632 7.66826C8.17532 9.88451 8.17532 9.88564 8.24057 10.0083C8.32724 10.1646 8.46451 10.2868 8.62982 10.3548C8.77832 10.4065 9.22157 10.4065 9.37007 10.3548C9.53539 10.2868 9.67266 10.1646 9.75932 10.0083C9.82457 9.88564 9.82457 9.88451 9.83357 7.66826C9.84257 5.24726 9.84257 5.24501 9.67045 5.04139C9.53095 4.87489 9.38132 4.81976 9.04495 4.81076C8.91948 4.80366 8.79363 4.80893 8.6692 4.82651ZM8.7592 11.8465C8.53422 11.9272 8.34708 12.0883 8.23382 12.2988C8.1527 12.5005 8.14278 12.724 8.2057 12.9321C8.26691 13.0949 8.37509 13.2357 8.51649 13.3369C8.6579 13.438 8.82617 13.4949 8.99995 13.5003C9.34082 13.5003 9.68845 13.2528 9.7942 12.9321C9.85712 12.724 9.8472 12.5005 9.76607 12.2988C9.67286 12.1345 9.53777 11.9979 9.37457 11.9028C9.24407 11.8353 8.89195 11.8026 8.7592 11.8465Z" fill="#F01300"/>
<g id="Vector_2">
<path d="M8.2044 5.29428C8.27415 5.05353 8.41702 4.90953 8.66902 4.82741C8.79345 4.80982 8.91931 4.80455 9.04477 4.81166C9.38115 4.82066 9.53077 4.87578 9.67027 5.04228C9.8424 5.2459 9.8424 5.24815 9.8334 7.66916L9.8334 7.6697C9.8244 9.88541 9.82439 9.88654 9.75915 10.0092C9.67248 10.1655 9.53521 10.2877 9.3699 10.3557C9.2214 10.4074 8.77815 10.4074 8.62965 10.3557C8.46433 10.2877 8.32706 10.1655 8.2404 10.0092C8.17515 9.88654 8.17515 9.88541 8.16615 7.6697L8.16615 7.66916C8.1594 5.7454 8.1639 5.43153 8.2044 5.29428Z" fill="#F9F9F9"/>
<path d="M8.23365 12.2997C8.3469 12.0892 8.53405 11.9281 8.75902 11.8474C8.89177 11.8035 9.2439 11.8362 9.3744 11.9037C9.5376 11.9987 9.67268 12.1354 9.7659 12.2997C9.84703 12.5014 9.85695 12.7249 9.79402 12.933C9.68827 13.2537 9.34065 13.5012 8.99977 13.5012C8.826 13.4958 8.65773 13.4389 8.51632 13.3378C8.37491 13.2366 8.26674 13.0958 8.20552 12.933C8.1426 12.7249 8.15252 12.5014 8.23365 12.2997Z" fill="#F9F9F9"/>
</g>
</g>
<defs>
<clipPath id="clip0_201_1168">
<rect width="18" height="18" fill="white"/>
</clipPath>
</defs>
</svg>
