<svg width="60" height="60" viewBox="0 0 60 60" fill="none" xmlns="http://www.w3.org/2000/svg">
<path d="M28.9599 16.7779C28.9593 16.7773 28.9587 16.7768 28.9581 16.7763C27.7932 15.7516 26.4108 14.9986 24.9124 14.5737C23.4133 14.1485 21.837 14.0627 20.2998 14.3227L28.9599 16.7779ZM28.9599 16.7779L29.0299 16.8399L30.0189 17.7156L31.0126 16.8452L31.0771 16.7887C31.0775 16.7883 31.078 16.7879 31.0784 16.7876C32.1903 15.8192 33.498 15.0967 34.9147 14.6688C36.3284 14.2419 37.8175 14.1183 39.2832 14.3063L39.74 14.3726C41.5852 14.6922 43.3084 15.4995 44.7287 16.7083C46.1536 17.9211 47.2204 19.4927 47.8175 21.2561C48.4145 23.0193 48.52 24.9097 48.123 26.7273C47.7271 28.5402 46.8457 30.2147 45.5705 31.5739L45.2727 31.8778L45.2301 31.9138L45.188 31.9496L45.1486 31.9883L30.3605 46.5288C30.2779 46.61 30.1665 46.6603 30.0464 46.6678L30.1392 48.1649L30.0464 46.6678C29.9367 46.6746 29.8292 46.645 29.7405 46.5858L29.6367 46.4959L14.7968 31.9036L14.7968 31.9036L14.7872 31.8943C13.4107 30.5647 12.4328 28.8839 11.9606 27.0388C11.4883 25.1938 11.5397 23.2551 12.1091 21.4371C12.6785 19.619 13.7442 17.9914 15.1895 16.7353C16.6349 15.4791 18.4035 14.6436 20.2997 14.3227L28.9599 16.7779Z" fill="#FF594C" stroke="#FF594C" stroke-width="3"/>
</svg>
