<svg xmlns="http://www.w3.org/2000/svg" width="40" height="37" viewBox="0 0 40 37" fill="none">
  <path d="M18.9599 4.77786C18.9593 4.77734 18.9587 4.77682 18.9581 4.7763C17.7932 3.75158 16.4108 2.99864 14.9124 2.5737C13.4133 2.14855 11.837 2.06274 10.2998 2.32273L18.9599 4.77786ZM18.9599 4.77786L19.0299 4.83991L20.0189 5.71559L21.0126 4.8452L21.0771 4.78873C21.0775 4.78834 21.078 4.78794 21.0784 4.78755C22.1903 3.81923 23.498 3.09672 24.9147 2.66885C26.3284 2.24188 27.8175 2.11825 29.2832 2.30627L29.74 2.37263C31.5852 2.69224 33.3084 3.49947 34.7287 4.70832C36.1536 5.92107 37.2204 7.49271 37.8175 9.25605C38.4145 11.0193 38.52 12.9097 38.123 14.7273C37.7271 16.5402 36.8457 18.2147 35.5705 19.5739L35.2727 19.8778L35.2301 19.9138L35.188 19.9496L35.1486 19.9883L20.3605 34.5288C20.2779 34.61 20.1665 34.6603 20.0464 34.6678L20.1392 36.1649L20.0464 34.6678C19.9367 34.6746 19.8292 34.645 19.7405 34.5858L19.6367 34.4959L4.79678 19.9036L4.79682 19.9036L4.78719 19.8943C3.41066 18.5647 2.43284 16.8839 1.96058 15.0388C1.48833 13.1938 1.5397 11.2551 2.10909 9.43707C2.67851 7.61899 3.74416 5.99139 5.18949 4.73527C6.63489 3.47909 8.40346 2.64363 10.2997 2.32275L18.9599 4.77786Z" fill="#FF594C" stroke="#FF594C" stroke-width="3"/>
</svg>