<svg width="24" height="25" viewBox="0 0 24 25" fill="none" xmlns="http://www.w3.org/2000/svg">
<path fill-rule="evenodd" clip-rule="evenodd" d="M11.9416 3.97559C12.2642 3.97559 12.5751 4.09607 12.8134 4.31343L21.3057 12.058L20.3163 13.0474L18.9089 11.7709V20.3723C18.9089 20.6878 18.7836 20.9903 18.5605 21.2134C18.3374 21.4364 18.0349 21.5617 17.7194 21.5617H14.5243C14.2088 21.5617 13.9063 21.4364 13.6832 21.2134C13.4601 20.9903 13.3348 20.6878 13.3348 20.3723V15.9877H10.5478V20.3723C10.5478 20.6878 10.4225 20.9903 10.1994 21.2134C9.97635 21.4364 9.67381 21.5617 9.35835 21.5617H6.16317C5.84771 21.5617 5.54517 21.4364 5.32211 21.2134C5.09905 20.9903 4.97373 20.6878 4.97373 20.3723V11.7821L3.58022 13.0474L2.59082 12.058L11.069 4.31411C11.3074 4.09633 11.6187 3.97559 11.9416 3.97559ZM6.36725 10.5154V20.1682H9.15427V15.2909L9.85103 14.5942H14.0316L14.7283 15.2909V20.1682H17.5154V10.507L11.9413 5.45271L6.36725 10.5154Z" fill="#666666"/>
</svg>
