<svg width="55" height="56" viewBox="0 0 55 56" fill="none" xmlns="http://www.w3.org/2000/svg">
<g filter="url(#filter0_d_117_871)">
<rect x="6" y="5" width="44" height="44" rx="22" fill="white"/>
</g>
<path d="M24.7296 34.6275L19.0523 36.5203C18.9539 36.5531 18.8491 36.5621 18.7466 36.5464C18.6441 36.5308 18.5468 36.491 18.4627 36.4303C18.3786 36.3696 18.3101 36.2898 18.2629 36.1974C18.2158 36.1051 18.1913 36.0028 18.1914 35.8991V19.8436C18.1914 19.7065 18.2346 19.5728 18.3148 19.4615C18.3949 19.3502 18.5081 19.267 18.6382 19.2236L24.7296 17.1924M24.7296 34.6275L31.2677 36.8068M24.7296 34.6275V17.1924M24.7296 17.1924L31.2677 19.3718M31.2677 36.8068L37.3591 34.7767C37.4894 34.7333 37.6026 34.6498 37.6828 34.5384C37.763 34.4269 37.8061 34.293 37.8059 34.1556V18.099C37.8058 17.9954 37.7812 17.8933 37.734 17.8011C37.6867 17.7088 37.6182 17.6292 37.5342 17.5686C37.4501 17.5081 37.3528 17.4683 37.2504 17.4528C37.148 17.4372 37.0433 17.4462 36.945 17.479L31.2677 19.3718M31.2677 36.8068V19.3718" stroke="#FF594B" stroke-width="1.8" stroke-linecap="round" stroke-linejoin="round"/>
<defs>
<filter id="filter0_d_117_871" x="0.168675" y="0.759036" width="54.6024" height="54.6024" filterUnits="userSpaceOnUse" color-interpolation-filters="sRGB">
<feFlood flood-opacity="0" result="BackgroundImageFix"/>
<feColorMatrix in="SourceAlpha" type="matrix" values="0 0 0 0 0 0 0 0 0 0 0 0 0 0 0 0 0 0 127 0" result="hardAlpha"/>
<feOffset dx="-0.53012" dy="1.06024"/>
<feGaussianBlur stdDeviation="2.6506"/>
<feComposite in2="hardAlpha" operator="out"/>
<feColorMatrix type="matrix" values="0 0 0 0 0 0 0 0 0 0 0 0 0 0 0 0 0 0 0.2 0"/>
<feBlend mode="normal" in2="BackgroundImageFix" result="effect1_dropShadow_117_871"/>
<feBlend mode="normal" in="SourceGraphic" in2="effect1_dropShadow_117_871" result="shape"/>
</filter>
</defs>
</svg>
