<svg width="24" height="25" viewBox="0 0 24 25" fill="none" xmlns="http://www.w3.org/2000/svg">
<path d="M3.85938 18.3696C3.85937 17.297 4.28548 16.2682 5.04395 15.5098C5.80242 14.7513 6.83113 14.3252 7.90377 14.3252H15.9926C17.0652 14.3252 18.0939 14.7513 18.8524 15.5098C19.6108 16.2682 20.037 17.297 20.037 18.3696C20.037 18.9059 19.8239 19.4203 19.4447 19.7995C19.0654 20.1787 18.5511 20.3918 18.0148 20.3918H5.88157C5.34525 20.3918 4.8309 20.1787 4.45166 19.7995C4.07243 19.4203 3.85938 18.9059 3.85938 18.3696Z" stroke="#666666" stroke-width="1.7029" stroke-linejoin="round"/>
<path d="M11.9483 10.7307C13.6236 10.7307 14.9816 9.3726 14.9816 7.69736C14.9816 6.02212 13.6236 4.66406 11.9483 4.66406C10.2731 4.66406 8.91504 6.02212 8.91504 7.69736C8.91504 9.3726 10.2731 10.7307 11.9483 10.7307Z" stroke="#666666" stroke-width="1.7029"/>
</svg>
