<svg width="24" height="24" viewBox="0 0 24 24" fill="none" xmlns="http://www.w3.org/2000/svg">
<mask id="path-1-inside-1_234_5" fill="white">
<path d="M7.45187 3.90762C8.24085 3.77217 9.04994 3.81685 9.81951 4.03837C10.5891 4.25988 11.2995 4.65258 11.8984 5.18753L11.9314 5.21717L11.9617 5.19022C12.5333 4.68481 13.2053 4.30802 13.9328 4.08499C14.6604 3.86196 15.4268 3.79782 16.1809 3.89684L16.4002 3.92917C17.3507 4.09454 18.2392 4.51583 18.9715 5.14843C19.7038 5.78103 20.2527 6.60139 20.56 7.52265C20.8674 8.4439 20.9217 9.43175 20.7173 10.3816C20.5129 11.3314 20.0574 12.2079 19.399 12.9182L19.2385 13.0843L19.1957 13.1212L12.5545 19.7488C12.4012 19.9017 12.1982 19.9933 11.983 20.0069C11.7677 20.0204 11.555 19.9549 11.384 19.8225L11.3002 19.7488L4.62065 13.0825C3.91304 12.3888 3.40981 11.5113 3.16667 10.5472C2.92354 9.58309 2.95 8.56998 3.24312 7.62008C3.53625 6.67018 4.08459 5.82056 4.82743 5.16531C5.57027 4.51007 6.47862 4.07477 7.45187 3.90762Z"/>
</mask>
<path d="M7.45187 3.90762C8.24085 3.77217 9.04994 3.81685 9.81951 4.03837C10.5891 4.25988 11.2995 4.65258 11.8984 5.18753L11.9314 5.21717L11.9617 5.19022C12.5333 4.68481 13.2053 4.30802 13.9328 4.08499C14.6604 3.86196 15.4268 3.79782 16.1809 3.89684L16.4002 3.92917C17.3507 4.09454 18.2392 4.51583 18.9715 5.14843C19.7038 5.78103 20.2527 6.60139 20.56 7.52265C20.8674 8.4439 20.9217 9.43175 20.7173 10.3816C20.5129 11.3314 20.0574 12.2079 19.399 12.9182L19.2385 13.0843L19.1957 13.1212L12.5545 19.7488C12.4012 19.9017 12.1982 19.9933 11.983 20.0069C11.7677 20.0204 11.555 19.9549 11.384 19.8225L11.3002 19.7488L4.62065 13.0825C3.91304 12.3888 3.40981 11.5113 3.16667 10.5472C2.92354 9.58309 2.95 8.56998 3.24312 7.62008C3.53625 6.67018 4.08459 5.82056 4.82743 5.16531C5.57027 4.51007 6.47862 4.07477 7.45187 3.90762Z" stroke="#666666" stroke-width="3.40581" mask="url(#path-1-inside-1_234_5)"/>
</svg>
