<svg width="20" height="20" viewBox="0 0 20 20" fill="none" xmlns="http://www.w3.org/2000/svg">
<g id="icon-park-outline:check-one" clip-path="url(#clip0_201_1073)">
<circle id="Ellipse 13" cx="10" cy="10" r="8" fill="#64C800"/>
<g id="Group">
<path id="Vector" d="M9.99984 18.3327C11.0944 18.334 12.1784 18.1191 13.1896 17.7002C14.2009 17.2813 15.1194 16.6668 15.8923 15.8919C16.6673 15.1189 17.2818 14.2004 17.7007 13.1892C18.1196 12.1779 18.3345 11.0939 18.3332 9.99936C18.3345 8.90481 18.1196 7.82078 17.7007 6.80956C17.2818 5.79834 16.6673 4.87984 15.8923 4.10686C15.1194 3.33192 14.2009 2.71736 13.1896 2.29849C12.1784 1.87961 11.0944 1.66467 9.99984 1.66602C8.9053 1.66467 7.82127 1.87961 6.81005 2.29849C5.79882 2.71736 4.88033 3.33192 4.10734 4.10686C3.33241 4.87984 2.71785 5.79834 2.29897 6.80956C1.8801 7.82078 1.66516 8.90481 1.66651 9.99936C1.66516 11.0939 1.8801 12.1779 2.29897 13.1892C2.71785 14.2004 3.33241 15.1189 4.10734 15.8919C4.88033 16.6668 5.79882 17.2813 6.81005 17.7002C7.82127 18.1191 8.9053 18.334 9.99984 18.3327Z" stroke="#64C800" stroke-width="1.66667" stroke-linejoin="round"/>
<path id="Vector_2" d="M6.6665 10L9.1665 12.5L14.1665 7.5" stroke="#F9F9F9" stroke-width="1.66667" stroke-linecap="round" stroke-linejoin="round"/>
</g>
</g>
<defs>
<clipPath id="clip0_201_1073">
<rect width="20" height="20" fill="white"/>
</clipPath>
</defs>
</svg>
