<svg width="140" height="150" viewBox="0 0 140 150" fill="none" xmlns="http://www.w3.org/2000/svg">
<path d="M2.61221 143.809V126.609H8.13721V139.409H16.9622V143.809H2.61221ZM25.762 144.109C24.262 144.109 22.9537 143.859 21.837 143.359C20.737 142.842 19.8787 142.075 19.262 141.059C18.6453 140.025 18.337 138.742 18.337 137.209C18.337 135.659 18.6453 134.375 19.262 133.359C19.8787 132.342 20.737 131.584 21.837 131.084C22.9537 130.567 24.262 130.309 25.762 130.309C27.262 130.309 28.5703 130.567 29.687 131.084C30.8037 131.584 31.6703 132.342 32.287 133.359C32.9037 134.375 33.212 135.659 33.212 137.209C33.212 138.742 32.9037 140.025 32.287 141.059C31.6703 142.075 30.8037 142.842 29.687 143.359C28.5703 143.859 27.262 144.109 25.762 144.109ZM25.762 140.734C26.3453 140.734 26.8203 140.625 27.187 140.409C27.5537 140.175 27.8203 139.85 27.987 139.434C28.1537 139.017 28.237 138.517 28.237 137.934V136.509C28.237 135.925 28.1537 135.425 27.987 135.009C27.8203 134.575 27.5537 134.25 27.187 134.034C26.8203 133.8 26.3453 133.684 25.762 133.684C25.1787 133.684 24.7037 133.8 24.337 134.034C23.987 134.25 23.7287 134.575 23.562 135.009C23.3953 135.425 23.312 135.925 23.312 136.509V137.934C23.312 138.517 23.3953 139.017 23.562 139.434C23.7287 139.85 23.987 140.175 24.337 140.409C24.7037 140.625 25.1787 140.734 25.762 140.734ZM39.5118 144.109C38.8285 144.109 38.2035 144.042 37.6368 143.909C37.0701 143.792 36.5785 143.592 36.1618 143.309C35.7451 143.009 35.4201 142.625 35.1868 142.159C34.9701 141.675 34.8618 141.092 34.8618 140.409C34.8618 139.425 35.0618 138.625 35.4618 138.009C35.8785 137.392 36.4785 136.917 37.2618 136.584C38.0451 136.25 38.9951 136.025 40.1118 135.909C41.2452 135.775 42.5368 135.709 43.9868 135.709V135.059C43.9868 134.692 43.8951 134.4 43.7118 134.184C43.5451 133.95 43.3202 133.775 43.0368 133.659C42.7535 133.542 42.4285 133.484 42.0618 133.484C41.7785 133.484 41.4868 133.517 41.1868 133.584C40.8868 133.65 40.6368 133.767 40.4368 133.934C40.2535 134.1 40.1618 134.334 40.1618 134.634V134.734H35.2618C35.2451 134.667 35.2368 134.609 35.2368 134.559C35.2368 134.509 35.2368 134.45 35.2368 134.384C35.2368 133.567 35.4951 132.859 36.0118 132.259C36.5451 131.642 37.3201 131.167 38.3368 130.834C39.3701 130.484 40.6368 130.309 42.1368 130.309C43.3535 130.309 44.4785 130.442 45.5118 130.709C46.5452 130.975 47.3785 131.425 48.0118 132.059C48.6452 132.675 48.9618 133.525 48.9618 134.609V139.759C48.9618 140.025 49.0285 140.259 49.1618 140.459C49.2952 140.642 49.4952 140.734 49.7618 140.734H50.6618V143.609C50.4618 143.725 50.1285 143.834 49.6618 143.934C49.2118 144.05 48.6785 144.109 48.0618 144.109C47.3952 144.109 46.8118 144.042 46.3118 143.909C45.8118 143.775 45.4035 143.584 45.0868 143.334C44.7868 143.084 44.5785 142.792 44.4618 142.459H44.2868C43.9368 142.775 43.5285 143.059 43.0618 143.309C42.6118 143.559 42.0952 143.75 41.5118 143.884C40.9285 144.034 40.2618 144.109 39.5118 144.109ZM41.5368 141.009C41.8535 141.009 42.1535 140.967 42.4368 140.884C42.7368 140.784 43.0035 140.659 43.2368 140.509C43.4701 140.342 43.6535 140.15 43.7868 139.934C43.9202 139.7 43.9868 139.45 43.9868 139.184V138.059C43.0035 138.059 42.2035 138.134 41.5868 138.284C40.9868 138.434 40.5451 138.634 40.2618 138.884C39.9785 139.134 39.8368 139.425 39.8368 139.759C39.8368 140.092 39.9202 140.35 40.0868 140.534C40.2535 140.717 40.4618 140.842 40.7118 140.909C40.9785 140.975 41.2535 141.009 41.5368 141.009ZM57.2616 144.109C56.095 144.109 55.095 143.859 54.2616 143.359C53.4283 142.842 52.7866 142.075 52.3366 141.059C51.9033 140.025 51.6866 138.734 51.6866 137.184C51.6866 135.65 51.9033 134.375 52.3366 133.359C52.7866 132.342 53.4283 131.584 54.2616 131.084C55.095 130.567 56.095 130.309 57.2616 130.309C57.7283 130.309 58.1783 130.367 58.6116 130.484C59.0616 130.584 59.47 130.75 59.8366 130.984C60.22 131.2 60.5366 131.484 60.7866 131.834H60.9616V125.684H65.9366V143.809H61.8866L61.5366 141.934H61.3616C60.895 142.684 60.3116 143.234 59.6116 143.584C58.9116 143.934 58.1283 144.109 57.2616 144.109ZM58.8116 140.434C59.3283 140.434 59.745 140.309 60.0616 140.059C60.395 139.809 60.6366 139.475 60.7866 139.059C60.9366 138.625 61.0116 138.15 61.0116 137.634V136.809C61.0116 136.425 60.97 136.067 60.8866 135.734C60.8033 135.384 60.67 135.084 60.4866 134.834C60.32 134.567 60.095 134.359 59.8116 134.209C59.5283 134.059 59.195 133.984 58.8116 133.984C58.295 133.984 57.8783 134.092 57.5616 134.309C57.245 134.525 57.0116 134.825 56.8616 135.209C56.7283 135.592 56.6616 136.042 56.6616 136.559V137.884C56.6616 138.4 56.7283 138.85 56.8616 139.234C57.0116 139.617 57.245 139.917 57.5616 140.134C57.8783 140.334 58.295 140.434 58.8116 140.434ZM68.9614 129.059V125.684H73.9364V129.059H68.9614ZM68.9614 143.809V130.609H73.9364V143.809H68.9614ZM76.9448 143.809V130.609H81.0198L81.3448 132.609H81.5198C81.8698 132.092 82.2782 131.667 82.7448 131.334C83.2115 130.984 83.7282 130.725 84.2948 130.559C84.8615 130.392 85.4448 130.309 86.0448 130.309C87.0948 130.309 87.9532 130.509 88.6198 130.909C89.3032 131.292 89.8115 131.85 90.1448 132.584C90.4782 133.317 90.6448 134.209 90.6448 135.259V143.809H85.6698V135.859C85.6698 135.575 85.6282 135.325 85.5448 135.109C85.4782 134.875 85.3782 134.675 85.2448 134.509C85.1115 134.342 84.9365 134.217 84.7198 134.134C84.5198 134.034 84.2782 133.984 83.9948 133.984C83.5782 133.984 83.2115 134.084 82.8948 134.284C82.5948 134.467 82.3532 134.717 82.1698 135.034C82.0032 135.334 81.9198 135.675 81.9198 136.059V143.809H76.9448ZM95.6946 149.059C95.0946 149.059 94.5363 148.917 94.0196 148.634C93.5196 148.35 93.1196 147.959 92.8196 147.459C92.5196 146.975 92.3696 146.434 92.3696 145.834C92.3696 145.15 92.578 144.55 92.9946 144.034C93.428 143.517 93.9196 143.134 94.4696 142.884C94.0696 142.6 93.753 142.259 93.5196 141.859C93.2863 141.459 93.1696 141.025 93.1696 140.559C93.1696 139.892 93.4113 139.3 93.8946 138.784C94.3946 138.25 94.9946 137.9 95.6946 137.734C95.0946 137.35 94.5863 136.892 94.1696 136.359C93.7696 135.809 93.5696 135.217 93.5696 134.584C93.5696 133.484 93.878 132.625 94.4946 132.009C95.1113 131.392 95.9363 130.959 96.9696 130.709C98.003 130.442 99.1363 130.309 100.37 130.309C100.87 130.309 101.286 130.325 101.62 130.359C101.97 130.375 102.278 130.409 102.545 130.459C103.278 130.009 103.786 129.567 104.07 129.134C104.353 128.7 104.495 128.367 104.495 128.134H108.595C108.595 128.85 108.47 129.442 108.22 129.909C107.986 130.375 107.636 130.75 107.17 131.034C106.72 131.317 106.178 131.542 105.545 131.709C106.028 132.075 106.403 132.509 106.67 133.009C106.953 133.492 107.095 134.009 107.095 134.559C107.095 135.542 106.836 136.35 106.32 136.984C105.803 137.6 105.12 138.059 104.27 138.359C103.436 138.659 102.528 138.809 101.545 138.809H99.6446C99.078 138.809 98.6696 138.875 98.4196 139.009C98.1863 139.142 98.0696 139.317 98.0696 139.534C98.0696 139.75 98.1696 139.934 98.3696 140.084C98.5863 140.234 99.0113 140.309 99.6446 140.309H104.145C105.678 140.309 106.803 140.709 107.52 141.509C108.236 142.292 108.595 143.3 108.595 144.534C108.595 145.467 108.336 146.267 107.82 146.934C107.303 147.617 106.62 148.142 105.77 148.509C104.936 148.875 104.028 149.059 103.045 149.059H95.6946ZM98.3946 146.284H102.295C102.545 146.284 102.77 146.234 102.97 146.134C103.17 146.034 103.328 145.884 103.445 145.684C103.561 145.5 103.62 145.284 103.62 145.034C103.62 144.65 103.486 144.35 103.22 144.134C102.97 143.917 102.661 143.809 102.295 143.809H98.3946C98.028 143.809 97.7196 143.909 97.4696 144.109C97.2196 144.325 97.0946 144.625 97.0946 145.009C97.0946 145.392 97.2196 145.7 97.4696 145.934C97.7196 146.167 98.028 146.284 98.3946 146.284ZM100.32 136.209C100.903 136.209 101.37 136.075 101.72 135.809C102.07 135.542 102.245 135.125 102.245 134.559C102.245 133.992 102.07 133.575 101.72 133.309C101.37 133.042 100.903 132.909 100.32 132.909C99.803 132.909 99.3613 133.042 98.9946 133.309C98.628 133.575 98.4446 133.992 98.4446 134.559C98.4446 134.925 98.5196 135.234 98.6696 135.484C98.8196 135.734 99.0363 135.917 99.3196 136.034C99.603 136.15 99.9363 136.209 100.32 136.209ZM114.787 143.809V138.834H120.087V143.809H114.787ZM123.112 143.809V138.834H128.412V143.809H123.112ZM131.438 143.809V138.834H136.738V143.809H131.438Z" fill="black"/>
<path d="M58.8713 103.573C61.1022 104.612 62.8967 105.65 64.1135 106.415C65.865 107.515 67.3339 108.808 69.5217 108.808C71.6604 108.808 73.1783 107.503 74.9176 106.415C76.1344 105.65 77.9289 104.612 80.1598 103.573C84.6645 101.465 90.675 99.482 97.1709 99.482C105.031 99.482 112.154 102.392 116.714 104.842C118.153 105.605 119.757 105.994 121.382 105.972C123.006 105.95 124.6 105.519 126.018 104.717C128.643 103.25 130.972 100.303 130.972 96.3732V18.6529C130.972 14.7917 129.159 10.8 125.453 8.52436C120.696 5.60208 109.991 0 97.1709 0C88.3027 0 80.4855 2.67358 75.0036 5.23524C72.828 6.25493 70.9721 7.27462 69.5156 8.14509C68.059 7.27462 66.2031 6.25493 64.0275 5.23524C58.5456 2.6798 50.7284 0 41.8602 0C29.0404 0 18.3347 5.59586 13.578 8.52436C11.873 9.5879 10.4688 11.0795 9.50179 12.8542C8.53478 14.6289 8.03785 16.6265 8.05926 18.6529V96.3732C8.05926 100.309 10.3885 103.25 13.0126 104.717C15.6122 106.166 19.1337 106.551 22.3233 104.842C26.8772 102.392 34 99.482 41.8602 99.482C48.3561 99.482 54.3666 101.472 58.8713 103.573Z" fill="black"/>
<path d="M18.003 56.2054L33.5929 31.1454L43.7294 33.2709L47.9392 62.4826L38.7099 60.5473L38.3683 56.4817L28.8628 54.4885L26.9168 58.0745L18.003 56.2054ZM31.9508 48.7949L37.867 50.0355L37.4752 45.424C37.4362 45.0864 37.3978 44.6803 37.3601 44.2057C37.3223 43.7312 37.2901 43.2303 37.2634 42.7031C37.2367 42.176 37.2072 41.662 37.175 41.1611C37.1483 40.6339 37.1209 40.1753 37.0929 39.7851L36.7774 39.7189C36.573 40.1702 36.3153 40.6789 36.0044 41.245C35.7199 41.8167 35.4166 42.412 35.0947 43.0307C34.7783 43.6232 34.4675 44.1894 34.1621 44.7293L31.9508 48.7949Z" fill="white"/>
<path d="M62.9622 78.1004L55.5079 51.3953L72.2374 46.7255C74.2299 46.1693 75.998 46.1081 77.5417 46.5419C79.1112 46.9685 80.4129 47.7348 81.4469 48.8409C82.4809 49.9469 83.2073 51.2504 83.6263 52.7513C84.103 54.4591 84.1281 56.0978 83.7015 57.6674C83.2677 59.211 82.477 60.5754 81.3294 61.7604L89.4732 70.7003L79.847 73.3873L73.2685 65.5585L69.0376 66.7395L71.5404 75.7059L62.9622 78.1004ZM67.3799 60.8007L73.3963 59.1213C74.0691 58.9335 74.5662 58.5159 74.8875 57.8683C75.2016 57.1949 75.2358 56.4182 74.9903 55.5384C74.8386 54.995 74.6014 54.5452 74.2788 54.1889C73.9563 53.8327 73.5813 53.5887 73.154 53.4569C72.7195 53.2992 72.2694 53.2854 71.8036 53.4155L65.7872 55.0948L67.3799 60.8007Z" fill="white"/>
<path d="M98.5743 57.6719L101.93 37.3133L92.9437 35.832L94.0973 28.8337L120.818 33.2383L119.664 40.2365L110.718 38.7618L107.362 59.1204L98.5743 57.6719Z" fill="white"/>
</svg>
