<svg width="20" height="20" viewBox="0 0 20 20" fill="none" xmlns="http://www.w3.org/2000/svg">
<g id="solar:chart-bold">
<path id="Vector" d="M16.6668 11.4584C16.6668 11.2927 16.601 11.1337 16.4838 11.0165C16.3666 10.8993 16.2076 10.8334 16.0418 10.8334H13.5418C13.3761 10.8334 13.2171 10.8993 13.0999 11.0165C12.9827 11.1337 12.9168 11.2927 12.9168 11.4584V17.0834H11.6668V3.54175C11.6668 2.93508 11.6652 2.54175 11.6268 2.25341C11.5902 1.98258 11.531 1.89758 11.4835 1.85008C11.436 1.80258 11.351 1.74341 11.0802 1.70675C10.791 1.66841 10.3985 1.66675 9.79183 1.66675C9.18516 1.66675 8.79183 1.66841 8.5035 1.70675C8.23266 1.74341 8.14766 1.80258 8.10016 1.85008C8.05266 1.89758 7.9935 1.98258 7.95683 2.25341C7.9185 2.54258 7.91683 2.93508 7.91683 3.54175V17.0834H6.66683V7.29175C6.66683 7.12599 6.60098 6.96702 6.48377 6.84981C6.36656 6.7326 6.20759 6.66675 6.04183 6.66675H3.54183C3.37607 6.66675 3.2171 6.7326 3.09989 6.84981C2.98268 6.96702 2.91683 7.12599 2.91683 7.29175V17.0834H1.4585C1.29274 17.0834 1.13376 17.1493 1.01655 17.2665C0.899344 17.3837 0.833496 17.5427 0.833496 17.7084C0.833496 17.8742 0.899344 18.0331 1.01655 18.1504C1.13376 18.2676 1.29274 18.3334 1.4585 18.3334H18.1252C18.2909 18.3334 18.4499 18.2676 18.5671 18.1504C18.6843 18.0331 18.7502 17.8742 18.7502 17.7084C18.7502 17.5427 18.6843 17.3837 18.5671 17.2665C18.4499 17.1493 18.2909 17.0834 18.1252 17.0834H16.6668V11.4584Z" fill="#F8F8F8"/>
</g>
</svg>
