<svg width="60" height="60" viewBox="0 0 60 60" fill="none" xmlns="http://www.w3.org/2000/svg">
<mask id="path-1-inside-1_201_2141" fill="white">
<path d="M20.0495 12.8438C21.8064 12.5466 23.608 12.6446 25.3217 13.1306C27.0353 13.6166 28.6172 14.4782 29.9508 15.6518L30.0243 15.7169L30.0918 15.6577C31.3646 14.5489 32.8609 13.7222 34.481 13.2329C36.1011 12.7436 37.8077 12.6029 39.4869 12.8201L39.9752 12.8911C42.0919 13.2539 44.0703 14.1781 45.7009 15.566C47.3316 16.9539 48.5539 18.7538 49.2382 20.775C49.9226 22.7962 50.0436 24.9635 49.5885 27.0474C49.1333 29.1313 48.119 31.0542 46.6528 32.6125L46.2955 32.9771L46.2002 33.0579L31.4118 47.5987C31.0705 47.9341 30.6184 48.1352 30.1392 48.1649C29.6599 48.1946 29.1861 48.0509 28.8055 47.7603L28.6189 47.5987L13.7451 32.9732C12.1694 31.4512 11.0488 29.526 10.5074 27.4108C9.96602 25.2955 10.0249 23.0728 10.6777 20.9888C11.3304 18.9047 12.5514 17.0407 14.2055 15.6031C15.8597 14.1655 17.8823 13.2105 20.0495 12.8438Z"/>
</mask>
<path d="M20.0495 12.8438C21.8064 12.5466 23.608 12.6446 25.3217 13.1306C27.0353 13.6166 28.6172 14.4782 29.9508 15.6518L30.0243 15.7169L30.0918 15.6577C31.3646 14.5489 32.8609 13.7222 34.481 13.2329C36.1011 12.7436 37.8077 12.6029 39.4869 12.8201L39.9752 12.8911C42.0919 13.2539 44.0703 14.1781 45.7009 15.566C47.3316 16.9539 48.5539 18.7538 49.2382 20.775C49.9226 22.7962 50.0436 24.9635 49.5885 27.0474C49.1333 29.1313 48.119 31.0542 46.6528 32.6125L46.2955 32.9771L46.2002 33.0579L31.4118 47.5987C31.0705 47.9341 30.6184 48.1352 30.1392 48.1649C29.6599 48.1946 29.1861 48.0509 28.8055 47.7603L28.6189 47.5987L13.7451 32.9732C12.1694 31.4512 11.0488 29.526 10.5074 27.4108C9.96602 25.2955 10.0249 23.0728 10.6777 20.9888C11.3304 18.9047 12.5514 17.0407 14.2055 15.6031C15.8597 14.1655 17.8823 13.2105 20.0495 12.8438Z" fill="#CCCCCC" fill-opacity="0.6" stroke="#CCCCCC" stroke-width="6" mask="url(#path-1-inside-1_201_2141)"/>
</svg>
