<svg width="90" height="70" viewBox="0 0 90 70" fill="none" xmlns="http://www.w3.org/2000/svg">
<path d="M37.847 66.6087C39.2811 67.2762 40.4347 67.9437 41.217 68.4353C42.3429 69.1428 43.2872 69.9742 44.6936 69.9742C46.0685 69.9742 47.0443 69.1348 48.1624 68.4353C48.9447 67.9437 50.0983 67.2762 51.5324 66.6087C54.4283 65.2537 58.2922 63.9786 62.4681 63.9786C67.5211 63.9786 72.1001 65.8492 75.0315 67.424C75.9565 67.9149 76.9879 68.1646 78.0323 68.1507C79.0767 68.1367 80.1012 67.8595 81.013 67.3441C82.7 66.4008 84.1973 64.5062 84.1973 61.9801V12.017C84.1973 9.53485 83.0318 6.96875 80.6495 5.50583C77.5916 3.62722 70.7094 0.0258789 62.4681 0.0258789C56.7672 0.0258789 51.7418 1.74461 48.2177 3.39139C46.8191 4.04691 45.626 4.70242 44.6897 5.26201C43.7534 4.70242 42.5602 4.04691 41.1617 3.39139C37.6376 1.74861 32.6122 0.0258789 26.9113 0.0258789C18.67 0.0258789 11.7877 3.62322 8.72985 5.50583C7.63376 6.18953 6.73105 7.14839 6.10941 8.28928C5.48776 9.43018 5.16831 10.7143 5.18207 12.017V61.9801C5.18207 64.5102 6.67941 66.4008 8.36638 67.3441C10.0376 68.2754 12.3013 68.5232 14.3518 67.424C17.2793 65.8492 21.8582 63.9786 26.9113 63.9786C31.0872 63.9786 34.9511 65.2577 37.847 66.6087Z" fill="black"/>
<path d="M11.6311 35.8781L21.6532 19.7681L28.1695 21.1345L30.8759 39.9134L24.9427 38.6693L24.7231 36.0557L18.6125 34.7744L17.3615 37.0797L11.6311 35.8781ZM20.5976 31.1142L24.4009 31.9117L24.149 28.9472C24.1239 28.7302 24.0992 28.4691 24.075 28.164C24.0507 27.8589 24.03 27.537 24.0128 27.1981C23.9957 26.8592 23.9767 26.5287 23.956 26.2068C23.9388 25.8679 23.9212 25.573 23.9032 25.3222L23.7004 25.2796C23.569 25.5697 23.4034 25.8968 23.2035 26.2607C23.0206 26.6282 22.8256 27.0109 22.6187 27.4087C22.4153 27.7895 22.2155 28.1535 22.0191 28.5006L20.5976 31.1142Z" fill="white"/>
<path d="M40.4 49.9579L35.6079 32.7903L46.3626 29.7883C47.6435 29.4307 48.7802 29.3914 49.7725 29.6703C50.7815 29.9445 51.6183 30.4371 52.283 31.1482C52.9477 31.8592 53.4147 32.6971 53.684 33.662C53.9905 34.7599 54.0066 35.8134 53.7324 36.8223C53.4535 37.8147 52.9452 38.6918 52.2075 39.4536L57.4428 45.2006L51.2545 46.928L47.0255 41.8952L44.3056 42.6544L45.9146 48.4186L40.4 49.9579ZM43.2399 38.8366L47.1076 37.757C47.5401 37.6363 47.8597 37.3678 48.0663 36.9515C48.2682 36.5186 48.2902 36.0193 48.1323 35.4537C48.0348 35.1044 47.8824 34.8152 47.675 34.5862C47.4676 34.3572 47.2266 34.2003 46.9519 34.1156C46.6726 34.0143 46.3832 34.0054 46.0837 34.089L42.216 35.1686L43.2399 38.8366Z" fill="white"/>
<path d="M63.4168 36.8185L65.5741 23.7309L59.7971 22.7786L60.5387 18.2797L77.7162 21.1112L76.9747 25.6101L71.2232 24.6621L69.0659 37.7497L63.4168 36.8185Z" fill="white"/>
</svg>
