<svg width="927" height="324" viewBox="0 0 927 324" fill="none" xmlns="http://www.w3.org/2000/svg">
<g filter="url(#filter0_b_240_4144)">
<rect width="927" height="324" rx="20" fill="white" fill-opacity="0.6"/>
<rect x="1.5" y="1.5" width="924" height="321" rx="18.5" stroke="#CCCCCC" stroke-width="3"/>
<path d="M0 20C0 8.95431 8.95431 0 20 0H906C917.046 0 926 8.9543 926 20V61H0V20Z" fill="#FF594B"/>
<path d="M881.978 31.6324C882.18 31.4273 882.452 31.3082 882.738 31.2993C883.024 31.2904 883.303 31.3924 883.517 31.5846C883.732 31.7768 883.867 32.0448 883.894 32.334C883.921 32.6233 883.838 32.9122 883.663 33.1421L883.57 33.2496L878.172 38.7316H881.084C881.371 38.732 881.648 38.8436 881.856 39.0437C882.065 39.2438 882.191 39.5173 882.207 39.8084C882.224 40.0994 882.131 40.3859 881.947 40.6095C881.763 40.833 881.501 40.9767 881.216 41.0111L881.084 41.0191H875.453C875.178 41.0191 874.911 40.9163 874.705 40.7301C874.499 40.5439 874.367 40.2874 874.335 40.0092L874.327 39.8754V34.1566C874.327 33.8651 874.437 33.5847 874.634 33.3728C874.831 33.1608 875.101 33.0332 875.387 33.0161C875.674 32.999 875.956 33.0937 876.176 33.2808C876.396 33.4679 876.538 33.7333 876.572 34.0228L876.58 34.1566V37.1144L881.978 31.6324ZM893.473 20.4316C893.749 20.4317 894.015 20.5345 894.221 20.7207C894.427 20.9068 894.559 21.1634 894.591 21.4416L894.599 21.5754V27.2941C894.599 27.5857 894.489 27.8661 894.292 28.078C894.095 28.29 893.825 28.4176 893.539 28.4347C893.252 28.4517 892.97 28.3571 892.75 28.17C892.53 27.9828 892.388 27.7174 892.354 27.428L892.347 27.2941V24.3364L886.949 29.8184C886.746 30.0235 886.474 30.1426 886.188 30.1515C885.902 30.1604 885.623 30.0583 885.409 29.8661C885.194 29.674 885.06 29.406 885.032 29.1167C885.005 28.8275 885.088 28.5385 885.263 28.3086L885.356 28.2011L890.754 22.7191H887.842C887.555 22.7188 887.279 22.6072 887.07 22.4071C886.861 22.2069 886.736 21.9334 886.719 21.6424C886.702 21.3514 886.795 21.0648 886.979 20.8413C887.164 20.6177 887.425 20.4741 887.71 20.4396L887.842 20.4316H893.473Z" fill="#F8F8F8"/>
<path d="M57.5649 38V24.28H61.6649L63.8249 31.92C63.9049 32.1867 63.9849 32.4867 64.0649 32.82C64.1449 33.1533 64.2183 33.4733 64.2849 33.78C64.3649 34.0867 64.4249 34.3533 64.4649 34.58H64.6249C64.6516 34.38 64.6916 34.1333 64.7449 33.84C64.7983 33.5467 64.8583 33.2333 64.9249 32.9C65.0049 32.5533 65.0916 32.22 65.1849 31.9L67.3449 24.28H71.4049V38H68.8049V31.06C68.8049 30.4467 68.8116 29.8333 68.8249 29.22C68.8383 28.6067 68.8516 28.08 68.8649 27.64C68.8916 27.2 68.9049 26.94 68.9049 26.86H68.7449C68.7183 26.98 68.6516 27.24 68.5449 27.64C68.4383 28.04 68.3249 28.4733 68.2049 28.94C68.0849 29.4067 67.9783 29.8067 67.8849 30.14L65.6249 38H63.2249L60.9649 30.16C60.8849 29.88 60.7916 29.5467 60.6849 29.16C60.5916 28.76 60.4916 28.3533 60.3849 27.94C60.2916 27.5267 60.2049 27.1667 60.1249 26.86H59.9649C59.9783 27.22 59.9916 27.6533 60.0049 28.16C60.0183 28.6533 60.0316 29.16 60.0449 29.68C60.0583 30.1867 60.0649 30.6467 60.0649 31.06V38H57.5649ZM76.9199 38.24C76.6266 38.24 76.2866 38.2 75.8999 38.12C75.5266 38.0533 75.1599 37.92 74.7999 37.72C74.4533 37.52 74.1666 37.2267 73.9399 36.84C73.7133 36.44 73.5999 35.92 73.5999 35.28C73.5999 34.56 73.7599 33.9667 74.0799 33.5C74.3999 33.02 74.8466 32.6467 75.4199 32.38C76.0066 32.1 76.6999 31.9067 77.4999 31.8C78.3133 31.68 79.1999 31.62 80.1599 31.62V30.76C80.1599 30.4533 80.1133 30.18 80.0199 29.94C79.9266 29.7 79.7533 29.5133 79.4999 29.38C79.2599 29.2333 78.8933 29.16 78.3999 29.16C77.9066 29.16 77.5199 29.22 77.2399 29.34C76.9599 29.46 76.7666 29.6067 76.6599 29.78C76.5533 29.9533 76.4999 30.1333 76.4999 30.32V30.6H74.1399C74.1266 30.5333 74.1199 30.4667 74.1199 30.4C74.1199 30.3333 74.1199 30.2533 74.1199 30.16C74.1199 29.56 74.2999 29.04 74.6599 28.6C75.0199 28.16 75.5199 27.8267 76.1599 27.6C76.7999 27.36 77.5399 27.24 78.3799 27.24C79.3399 27.24 80.1266 27.3733 80.7399 27.64C81.3666 27.9067 81.8333 28.2867 82.1399 28.78C82.4466 29.2733 82.5999 29.8733 82.5999 30.58V35.54C82.5999 35.7933 82.6733 35.9733 82.8199 36.08C82.9666 36.1867 83.1266 36.24 83.2999 36.24H83.9399V37.92C83.8066 37.9733 83.6133 38.0333 83.3599 38.1C83.1066 38.18 82.7933 38.22 82.4199 38.22C82.0733 38.22 81.7599 38.16 81.4799 38.04C81.2133 37.9333 80.9866 37.7733 80.7999 37.56C80.6133 37.3467 80.4799 37.0933 80.3999 36.8H80.2799C80.0533 37.08 79.7799 37.3333 79.4599 37.56C79.1533 37.7733 78.7866 37.94 78.3599 38.06C77.9466 38.18 77.4666 38.24 76.9199 38.24ZM77.6599 36.24C78.0599 36.24 78.4133 36.18 78.7199 36.06C79.0399 35.94 79.2999 35.7733 79.4999 35.56C79.7133 35.3467 79.8733 35.0867 79.9799 34.78C80.0999 34.4733 80.1599 34.14 80.1599 33.78V33.3C79.4266 33.3 78.7466 33.3467 78.1199 33.44C77.5066 33.5333 77.0133 33.7067 76.6399 33.96C76.2799 34.2133 76.0999 34.5733 76.0999 35.04C76.0999 35.28 76.1533 35.4933 76.2599 35.68C76.3799 35.8533 76.5533 35.9933 76.7799 36.1C77.0199 36.1933 77.3133 36.24 77.6599 36.24ZM85.3332 41.46V27.48H87.3532L87.5532 28.88H87.6932C88.0399 28.3333 88.4932 27.9267 89.0532 27.66C89.6132 27.38 90.2332 27.24 90.9132 27.24C91.7799 27.24 92.5199 27.4333 93.1332 27.82C93.7599 28.2067 94.2399 28.8067 94.5732 29.62C94.9199 30.4333 95.0932 31.48 95.0932 32.76C95.0932 34.0133 94.9199 35.0467 94.5732 35.86C94.2265 36.6733 93.7465 37.2733 93.1332 37.66C92.5332 38.0467 91.8399 38.24 91.0532 38.24C90.5732 38.24 90.1332 38.1867 89.7332 38.08C89.3332 37.9733 88.9799 37.8133 88.6732 37.6C88.3665 37.3733 88.1065 37.1 87.8932 36.78H87.7732V41.46H85.3332ZM90.1532 36.14C90.7532 36.14 91.2265 36.0267 91.5732 35.8C91.9332 35.56 92.1865 35.2 92.3332 34.72C92.4932 34.24 92.5732 33.6333 92.5732 32.9V32.62C92.5732 31.8733 92.4932 31.26 92.3332 30.78C92.1865 30.2867 91.9332 29.9267 91.5732 29.7C91.2265 29.46 90.7532 29.34 90.1532 29.34C89.6065 29.34 89.1532 29.4667 88.7932 29.72C88.4465 29.9733 88.1865 30.3467 88.0132 30.84C87.8532 31.32 87.7732 31.9133 87.7732 32.62V32.86C87.7732 33.38 87.8199 33.8467 87.9132 34.26C88.0065 34.66 88.1465 35 88.3332 35.28C88.5332 35.56 88.7799 35.7733 89.0732 35.92C89.3799 36.0667 89.7399 36.14 90.1532 36.14ZM97.1691 41.46V27.48H99.1891L99.3891 28.88H99.5291C99.8758 28.3333 100.329 27.9267 100.889 27.66C101.449 27.38 102.069 27.24 102.749 27.24C103.616 27.24 104.356 27.4333 104.969 27.82C105.596 28.2067 106.076 28.8067 106.409 29.62C106.756 30.4333 106.929 31.48 106.929 32.76C106.929 34.0133 106.756 35.0467 106.409 35.86C106.062 36.6733 105.582 37.2733 104.969 37.66C104.369 38.0467 103.676 38.24 102.889 38.24C102.409 38.24 101.969 38.1867 101.569 38.08C101.169 37.9733 100.816 37.8133 100.509 37.6C100.202 37.3733 99.9425 37.1 99.7291 36.78H99.6091V41.46H97.1691ZM101.989 36.14C102.589 36.14 103.062 36.0267 103.409 35.8C103.769 35.56 104.022 35.2 104.169 34.72C104.329 34.24 104.409 33.6333 104.409 32.9V32.62C104.409 31.8733 104.329 31.26 104.169 30.78C104.022 30.2867 103.769 29.9267 103.409 29.7C103.062 29.46 102.589 29.34 101.989 29.34C101.442 29.34 100.989 29.4667 100.629 29.72C100.282 29.9733 100.022 30.3467 99.8491 30.84C99.6891 31.32 99.6091 31.9133 99.6091 32.62V32.86C99.6091 33.38 99.6558 33.8467 99.7491 34.26C99.8425 34.66 99.9825 35 100.169 35.28C100.369 35.56 100.616 35.7733 100.909 35.92C101.216 36.0667 101.576 36.14 101.989 36.14ZM109.005 25.86V23.54H111.445V25.86H109.005ZM109.005 38V27.48H111.445V38H109.005ZM118.564 38.24C117.444 38.24 116.511 38.0467 115.764 37.66C115.017 37.26 114.457 36.6533 114.084 35.84C113.711 35.0267 113.524 33.9933 113.524 32.74C113.524 31.4733 113.711 30.44 114.084 29.64C114.457 28.8267 115.017 28.2267 115.764 27.84C116.511 27.44 117.444 27.24 118.564 27.24C119.577 27.24 120.424 27.4333 121.104 27.82C121.797 28.1933 122.317 28.7733 122.664 29.56C123.011 30.3467 123.184 31.3667 123.184 32.62V33.34H116.024C116.051 33.9933 116.151 34.5467 116.324 35C116.497 35.44 116.764 35.7733 117.124 36C117.497 36.2133 117.984 36.32 118.584 36.32C118.891 36.32 119.177 36.28 119.444 36.2C119.711 36.12 119.944 36 120.144 35.84C120.344 35.6667 120.497 35.4533 120.604 35.2C120.724 34.9467 120.784 34.6533 120.784 34.32H123.184C123.184 34.9867 123.064 35.5667 122.824 36.06C122.597 36.5533 122.271 36.96 121.844 37.28C121.431 37.6 120.944 37.84 120.384 38C119.824 38.16 119.217 38.24 118.564 38.24ZM116.064 31.62H120.644C120.644 31.18 120.591 30.8067 120.484 30.5C120.391 30.1933 120.251 29.94 120.064 29.74C119.891 29.54 119.677 29.4 119.424 29.32C119.171 29.2267 118.884 29.18 118.564 29.18C118.044 29.18 117.604 29.2667 117.244 29.44C116.897 29.6133 116.631 29.88 116.444 30.24C116.257 30.6 116.131 31.06 116.064 31.62Z" fill="white"/>
<path d="M133.754 38.144C133.114 38.144 132.574 38.028 132.134 37.796C131.702 37.556 131.37 37.192 131.138 36.704C130.914 36.216 130.802 35.596 130.802 34.844C130.802 34.084 130.914 33.464 131.138 32.984C131.37 32.496 131.702 32.136 132.134 31.904C132.574 31.664 133.114 31.544 133.754 31.544C134.394 31.544 134.93 31.664 135.362 31.904C135.802 32.136 136.134 32.496 136.358 32.984C136.582 33.464 136.694 34.084 136.694 34.844C136.694 35.596 136.582 36.216 136.358 36.704C136.134 37.192 135.802 37.556 135.362 37.796C134.93 38.028 134.394 38.144 133.754 38.144ZM133.754 37.256C134.162 37.256 134.502 37.176 134.774 37.016C135.046 36.856 135.25 36.608 135.386 36.272C135.53 35.928 135.602 35.496 135.602 34.976V34.712C135.602 34.184 135.53 33.752 135.386 33.416C135.25 33.08 135.046 32.832 134.774 32.672C134.502 32.512 134.162 32.432 133.754 32.432C133.346 32.432 133.002 32.512 132.722 32.672C132.45 32.832 132.246 33.08 132.11 33.416C131.974 33.752 131.906 34.184 131.906 34.712V34.976C131.906 35.496 131.974 35.928 132.11 36.272C132.246 36.608 132.45 36.856 132.722 37.016C133.002 37.176 133.346 37.256 133.754 37.256ZM138.006 38V31.688H138.858L138.954 32.636H139.038C139.206 32.38 139.394 32.172 139.602 32.012C139.818 31.852 140.054 31.736 140.31 31.664C140.574 31.584 140.854 31.544 141.15 31.544C141.55 31.544 141.898 31.612 142.194 31.748C142.498 31.884 142.734 32.104 142.902 32.408C143.078 32.712 143.166 33.124 143.166 33.644V38H142.11V33.788C142.11 33.524 142.074 33.308 142.002 33.14C141.938 32.972 141.846 32.84 141.726 32.744C141.614 32.648 141.474 32.58 141.306 32.54C141.146 32.5 140.966 32.48 140.766 32.48C140.47 32.48 140.19 32.552 139.926 32.696C139.662 32.84 139.45 33.048 139.29 33.32C139.138 33.592 139.062 33.916 139.062 34.292V38H138.006ZM144.767 38V29.324H145.823V38H144.767ZM147.463 30.5V29.324H148.519V30.5H147.463ZM147.463 38V31.688H148.519V38H147.463ZM150.158 38V31.688H151.01L151.106 32.636H151.19C151.358 32.38 151.546 32.172 151.754 32.012C151.97 31.852 152.206 31.736 152.462 31.664C152.726 31.584 153.006 31.544 153.302 31.544C153.702 31.544 154.05 31.612 154.346 31.748C154.65 31.884 154.886 32.104 155.054 32.408C155.23 32.712 155.318 33.124 155.318 33.644V38H154.262V33.788C154.262 33.524 154.226 33.308 154.154 33.14C154.09 32.972 153.998 32.84 153.878 32.744C153.766 32.648 153.626 32.58 153.458 32.54C153.298 32.5 153.118 32.48 152.918 32.48C152.622 32.48 152.342 32.552 152.078 32.696C151.814 32.84 151.602 33.048 151.442 33.32C151.29 33.592 151.214 33.916 151.214 34.292V38H150.158ZM159.44 38.144C158.816 38.144 158.288 38.028 157.856 37.796C157.432 37.556 157.108 37.192 156.884 36.704C156.668 36.216 156.56 35.596 156.56 34.844C156.56 34.084 156.668 33.464 156.884 32.984C157.108 32.496 157.436 32.136 157.868 31.904C158.3 31.664 158.84 31.544 159.488 31.544C160.08 31.544 160.576 31.66 160.976 31.892C161.376 32.116 161.676 32.456 161.876 32.912C162.084 33.36 162.188 33.924 162.188 34.604V35.108H157.652C157.668 35.612 157.74 36.028 157.868 36.356C158.004 36.676 158.204 36.912 158.468 37.064C158.732 37.208 159.064 37.28 159.464 37.28C159.736 37.28 159.972 37.248 160.172 37.184C160.38 37.112 160.552 37.012 160.688 36.884C160.832 36.756 160.94 36.604 161.012 36.428C161.084 36.252 161.124 36.06 161.132 35.852H162.164C162.156 36.188 162.092 36.5 161.972 36.788C161.852 37.068 161.676 37.308 161.444 37.508C161.212 37.708 160.928 37.864 160.592 37.976C160.256 38.088 159.872 38.144 159.44 38.144ZM157.676 34.316H161.096C161.096 33.964 161.056 33.668 160.976 33.428C160.896 33.188 160.78 32.992 160.628 32.84C160.484 32.688 160.312 32.58 160.112 32.516C159.92 32.444 159.7 32.408 159.452 32.408C159.084 32.408 158.772 32.476 158.516 32.612C158.26 32.748 158.064 32.956 157.928 33.236C157.792 33.516 157.708 33.876 157.676 34.316Z" fill="#F9F9F9"/>
<circle cx="38.5" cy="31.5" r="6.5" fill="#33FF00"/>
<g filter="url(#filter1_i_240_4144)">
<rect x="73" y="237" width="719" height="56" rx="28" fill="#F9F9F9"/>
<path d="M109.861 270.192C108.741 270.192 107.787 269.995 106.997 269.6C106.219 269.195 105.621 268.571 105.205 267.728C104.789 266.885 104.581 265.813 104.581 264.512C104.581 262.592 105.045 261.168 105.973 260.24C106.912 259.301 108.213 258.832 109.877 258.832C110.795 258.832 111.616 258.987 112.341 259.296C113.077 259.605 113.653 260.069 114.069 260.688C114.496 261.296 114.709 262.075 114.709 263.024H112.885C112.885 262.437 112.763 261.947 112.517 261.552C112.272 261.157 111.92 260.859 111.461 260.656C111.013 260.453 110.491 260.352 109.893 260.352C109.147 260.352 108.512 260.501 107.989 260.8C107.477 261.088 107.088 261.525 106.821 262.112C106.565 262.699 106.437 263.445 106.437 264.352V264.704C106.437 265.611 106.565 266.357 106.821 266.944C107.088 267.531 107.477 267.968 107.989 268.256C108.501 268.533 109.136 268.672 109.893 268.672C110.512 268.672 111.051 268.576 111.509 268.384C111.968 268.181 112.32 267.883 112.565 267.488C112.821 267.093 112.949 266.603 112.949 266.016H114.709C114.709 266.965 114.496 267.749 114.069 268.368C113.653 268.987 113.077 269.445 112.341 269.744C111.616 270.043 110.789 270.192 109.861 270.192ZM116.479 270V258.432H118.143V262.592H118.255C118.458 262.336 118.687 262.123 118.943 261.952C119.199 261.771 119.487 261.632 119.807 261.536C120.127 261.44 120.479 261.392 120.863 261.392C121.397 261.392 121.866 261.488 122.271 261.68C122.677 261.861 122.991 262.16 123.215 262.576C123.45 262.992 123.567 263.552 123.567 264.256V270H121.903V264.512C121.903 264.192 121.861 263.925 121.775 263.712C121.701 263.499 121.589 263.328 121.439 263.2C121.29 263.072 121.114 262.981 120.911 262.928C120.709 262.875 120.485 262.848 120.239 262.848C119.855 262.848 119.503 262.939 119.183 263.12C118.874 263.301 118.623 263.557 118.431 263.888C118.239 264.219 118.143 264.613 118.143 265.072V270H116.479ZM127.779 270.192C127.512 270.192 127.224 270.16 126.915 270.096C126.606 270.032 126.312 269.915 126.035 269.744C125.768 269.573 125.55 269.339 125.379 269.04C125.208 268.731 125.123 268.331 125.123 267.84C125.123 267.264 125.256 266.789 125.523 266.416C125.79 266.043 126.163 265.749 126.643 265.536C127.123 265.323 127.694 265.173 128.355 265.088C129.027 265.003 129.758 264.96 130.547 264.96V264.128C130.547 263.851 130.499 263.605 130.403 263.392C130.318 263.179 130.152 263.013 129.907 262.896C129.672 262.779 129.331 262.72 128.883 262.72C128.435 262.72 128.083 262.779 127.827 262.896C127.582 263.003 127.406 263.141 127.299 263.312C127.203 263.472 127.155 263.648 127.155 263.84V264.08H125.555C125.544 264.027 125.539 263.973 125.539 263.92C125.539 263.867 125.539 263.803 125.539 263.728C125.539 263.227 125.678 262.805 125.955 262.464C126.243 262.112 126.643 261.845 127.155 261.664C127.667 261.483 128.259 261.392 128.931 261.392C129.656 261.392 130.259 261.499 130.739 261.712C131.23 261.915 131.598 262.208 131.843 262.592C132.088 262.976 132.211 263.44 132.211 263.984V268.256C132.211 268.459 132.259 268.603 132.355 268.688C132.462 268.773 132.584 268.816 132.723 268.816H133.299V269.936C133.171 269.989 133.011 270.043 132.819 270.096C132.627 270.149 132.403 270.176 132.147 270.176C131.859 270.176 131.614 270.123 131.411 270.016C131.219 269.92 131.059 269.781 130.931 269.6C130.814 269.408 130.734 269.195 130.691 268.96H130.595C130.403 269.205 130.168 269.424 129.891 269.616C129.624 269.797 129.315 269.936 128.963 270.032C128.611 270.139 128.216 270.192 127.779 270.192ZM128.243 268.816C128.574 268.816 128.878 268.768 129.155 268.672C129.443 268.565 129.688 268.421 129.891 268.24C130.094 268.048 130.254 267.824 130.371 267.568C130.488 267.301 130.547 267.013 130.547 266.704V266.144C129.811 266.144 129.166 266.187 128.611 266.272C128.056 266.357 127.624 266.517 127.315 266.752C127.006 266.976 126.851 267.291 126.851 267.696C126.851 267.941 126.904 268.149 127.011 268.32C127.118 268.48 127.278 268.603 127.491 268.688C127.704 268.773 127.955 268.816 128.243 268.816ZM136.544 270.192C136.064 270.192 135.685 270.101 135.408 269.92C135.141 269.728 134.949 269.488 134.832 269.2C134.725 268.901 134.672 268.587 134.672 268.256V262.96H133.616V261.584H134.704L135.008 259.232H136.336V261.584H137.856V262.96H136.336V268.064C136.336 268.309 136.389 268.496 136.496 268.624C136.603 268.752 136.779 268.816 137.024 268.816H137.856V269.936C137.749 269.979 137.616 270.016 137.456 270.048C137.307 270.091 137.152 270.123 136.992 270.144C136.832 270.176 136.683 270.192 136.544 270.192ZM144.172 270L141.644 261.584H143.372L144.604 266.192C144.668 266.416 144.722 266.651 144.764 266.896C144.818 267.141 144.866 267.36 144.908 267.552C144.951 267.744 144.983 267.877 145.004 267.952H145.1C145.143 267.76 145.191 267.541 145.244 267.296C145.298 267.051 145.346 266.827 145.388 266.624C145.431 266.411 145.463 266.251 145.484 266.144L146.604 261.584H148.396L149.548 266.16C149.591 266.331 149.634 266.528 149.676 266.752C149.73 266.965 149.778 267.179 149.82 267.392C149.874 267.605 149.911 267.792 149.932 267.952H150.028C150.06 267.803 150.098 267.627 150.14 267.424C150.194 267.211 150.247 266.997 150.3 266.784C150.354 266.571 150.402 266.373 150.444 266.192L151.66 261.584H153.244L150.732 270H149.004L147.98 265.808C147.938 265.605 147.884 265.371 147.82 265.104C147.756 264.837 147.698 264.571 147.644 264.304C147.591 264.037 147.548 263.803 147.516 263.6H147.42C147.399 263.717 147.367 263.888 147.324 264.112C147.292 264.336 147.244 264.592 147.18 264.88C147.116 265.168 147.042 265.477 146.956 265.808L145.9 270H144.172ZM154.448 260.128V258.432H156.112V260.128H154.448ZM154.448 270V261.584H156.112V270H154.448ZM160.356 270.192C159.876 270.192 159.498 270.101 159.22 269.92C158.954 269.728 158.762 269.488 158.644 269.2C158.538 268.901 158.484 268.587 158.484 268.256V262.96H157.428V261.584H158.516L158.82 259.232H160.148V261.584H161.668V262.96H160.148V268.064C160.148 268.309 160.202 268.496 160.308 268.624C160.415 268.752 160.591 268.816 160.836 268.816H161.668V269.936C161.562 269.979 161.428 270.016 161.268 270.048C161.119 270.091 160.964 270.123 160.804 270.144C160.644 270.176 160.495 270.192 160.356 270.192ZM163.135 270V258.432H164.799V262.592H164.911C165.114 262.336 165.343 262.123 165.599 261.952C165.855 261.771 166.143 261.632 166.463 261.536C166.783 261.44 167.135 261.392 167.519 261.392C168.053 261.392 168.522 261.488 168.927 261.68C169.333 261.861 169.647 262.16 169.871 262.576C170.106 262.992 170.223 263.552 170.223 264.256V270H168.559V264.512C168.559 264.192 168.517 263.925 168.431 263.712C168.357 263.499 168.245 263.328 168.095 263.2C167.946 263.072 167.77 262.981 167.567 262.928C167.365 262.875 167.141 262.848 166.895 262.848C166.511 262.848 166.159 262.939 165.839 263.12C165.53 263.301 165.279 263.557 165.087 263.888C164.895 264.219 164.799 264.613 164.799 265.072V270H163.135ZM175.813 270V259.024H178.613L180.741 265.68C180.805 265.872 180.869 266.091 180.933 266.336C180.997 266.581 181.055 266.816 181.109 267.04C181.173 267.264 181.221 267.461 181.253 267.632H181.381C181.402 267.472 181.439 267.28 181.493 267.056C181.546 266.832 181.599 266.597 181.653 266.352C181.717 266.107 181.781 265.877 181.845 265.664L183.989 259.024H186.741V270H184.965V263.984C184.965 263.579 184.97 263.157 184.981 262.72C184.991 262.283 185.002 261.893 185.013 261.552C185.023 261.211 185.029 260.992 185.029 260.896H184.901C184.879 261.013 184.826 261.216 184.741 261.504C184.666 261.781 184.586 262.08 184.501 262.4C184.415 262.72 184.335 262.997 184.261 263.232L182.037 270H180.453L178.229 263.248C178.165 263.045 178.095 262.805 178.021 262.528C177.946 262.251 177.871 261.968 177.797 261.68C177.722 261.392 177.658 261.131 177.605 260.896H177.477C177.487 261.152 177.493 261.467 177.493 261.84C177.503 262.213 177.514 262.592 177.525 262.976C177.535 263.349 177.541 263.685 177.541 263.984V270H175.813ZM191.248 270.192C190.981 270.192 190.693 270.16 190.384 270.096C190.075 270.032 189.781 269.915 189.504 269.744C189.237 269.573 189.019 269.339 188.848 269.04C188.677 268.731 188.592 268.331 188.592 267.84C188.592 267.264 188.725 266.789 188.992 266.416C189.259 266.043 189.632 265.749 190.112 265.536C190.592 265.323 191.163 265.173 191.824 265.088C192.496 265.003 193.227 264.96 194.016 264.96V264.128C194.016 263.851 193.968 263.605 193.872 263.392C193.787 263.179 193.621 263.013 193.376 262.896C193.141 262.779 192.8 262.72 192.352 262.72C191.904 262.72 191.552 262.779 191.296 262.896C191.051 263.003 190.875 263.141 190.768 263.312C190.672 263.472 190.624 263.648 190.624 263.84V264.08H189.024C189.013 264.027 189.008 263.973 189.008 263.92C189.008 263.867 189.008 263.803 189.008 263.728C189.008 263.227 189.147 262.805 189.424 262.464C189.712 262.112 190.112 261.845 190.624 261.664C191.136 261.483 191.728 261.392 192.4 261.392C193.125 261.392 193.728 261.499 194.208 261.712C194.699 261.915 195.067 262.208 195.312 262.592C195.557 262.976 195.68 263.44 195.68 263.984V268.256C195.68 268.459 195.728 268.603 195.824 268.688C195.931 268.773 196.053 268.816 196.192 268.816H196.768V269.936C196.64 269.989 196.48 270.043 196.288 270.096C196.096 270.149 195.872 270.176 195.616 270.176C195.328 270.176 195.083 270.123 194.88 270.016C194.688 269.92 194.528 269.781 194.4 269.6C194.283 269.408 194.203 269.195 194.16 268.96H194.064C193.872 269.205 193.637 269.424 193.36 269.616C193.093 269.797 192.784 269.936 192.432 270.032C192.08 270.139 191.685 270.192 191.248 270.192ZM191.712 268.816C192.043 268.816 192.347 268.768 192.624 268.672C192.912 268.565 193.157 268.421 193.36 268.24C193.563 268.048 193.723 267.824 193.84 267.568C193.957 267.301 194.016 267.013 194.016 266.704V266.144C193.28 266.144 192.635 266.187 192.08 266.272C191.525 266.357 191.093 266.517 190.784 266.752C190.475 266.976 190.32 267.291 190.32 267.696C190.32 267.941 190.373 268.149 190.48 268.32C190.587 268.48 190.747 268.603 190.96 268.688C191.173 268.773 191.424 268.816 191.712 268.816ZM197.917 272.768V261.584H199.277L199.421 262.736H199.533C199.821 262.288 200.189 261.952 200.637 261.728C201.085 261.504 201.586 261.392 202.141 261.392C202.834 261.392 203.426 261.547 203.917 261.856C204.418 262.165 204.802 262.645 205.069 263.296C205.335 263.947 205.469 264.789 205.469 265.824C205.469 266.827 205.33 267.653 205.053 268.304C204.786 268.944 204.407 269.419 203.917 269.728C203.426 270.037 202.861 270.192 202.221 270.192C201.847 270.192 201.501 270.149 201.181 270.064C200.861 269.979 200.573 269.845 200.317 269.664C200.071 269.483 199.858 269.253 199.677 268.976H199.581V272.768H197.917ZM201.645 268.752C202.146 268.752 202.551 268.656 202.861 268.464C203.17 268.261 203.394 267.952 203.533 267.536C203.682 267.12 203.757 266.592 203.757 265.952V265.664C203.757 264.992 203.682 264.448 203.533 264.032C203.383 263.616 203.154 263.312 202.845 263.12C202.546 262.928 202.157 262.832 201.677 262.832C201.186 262.832 200.786 262.944 200.477 263.168C200.167 263.381 199.938 263.701 199.789 264.128C199.65 264.555 199.581 265.072 199.581 265.68V265.904C199.581 266.405 199.629 266.837 199.725 267.2C199.821 267.563 199.959 267.861 200.141 268.096C200.322 268.32 200.541 268.485 200.797 268.592C201.053 268.699 201.335 268.752 201.645 268.752ZM207.182 272.768V261.584H208.542L208.686 262.736H208.798C209.086 262.288 209.454 261.952 209.902 261.728C210.35 261.504 210.852 261.392 211.406 261.392C212.1 261.392 212.692 261.547 213.182 261.856C213.684 262.165 214.068 262.645 214.334 263.296C214.601 263.947 214.734 264.789 214.734 265.824C214.734 266.827 214.596 267.653 214.318 268.304C214.052 268.944 213.673 269.419 213.182 269.728C212.692 270.037 212.126 270.192 211.486 270.192C211.113 270.192 210.766 270.149 210.446 270.064C210.126 269.979 209.838 269.845 209.582 269.664C209.337 269.483 209.124 269.253 208.942 268.976H208.846V272.768H207.182ZM210.91 268.752C211.412 268.752 211.817 268.656 212.126 268.464C212.436 268.261 212.66 267.952 212.798 267.536C212.948 267.12 213.022 266.592 213.022 265.952V265.664C213.022 264.992 212.948 264.448 212.798 264.032C212.649 263.616 212.42 263.312 212.11 263.12C211.812 262.928 211.422 262.832 210.942 262.832C210.452 262.832 210.052 262.944 209.742 263.168C209.433 263.381 209.204 263.701 209.054 264.128C208.916 264.555 208.846 265.072 208.846 265.68V265.904C208.846 266.405 208.894 266.837 208.99 267.2C209.086 267.563 209.225 267.861 209.406 268.096C209.588 268.32 209.806 268.485 210.062 268.592C210.318 268.699 210.601 268.752 210.91 268.752ZM216.448 260.128V258.432H218.112V260.128H216.448ZM216.448 270V261.584H218.112V270H216.448ZM223.748 270.192C222.884 270.192 222.159 270.037 221.572 269.728C220.996 269.408 220.559 268.923 220.26 268.272C219.962 267.621 219.812 266.795 219.812 265.792C219.812 264.779 219.962 263.952 220.26 263.312C220.559 262.661 221.002 262.181 221.588 261.872C222.175 261.552 222.906 261.392 223.78 261.392C224.58 261.392 225.247 261.547 225.78 261.856C226.324 262.155 226.735 262.613 227.012 263.232C227.29 263.851 227.428 264.629 227.428 265.568V266.208H221.524C221.546 266.805 221.636 267.307 221.796 267.712C221.956 268.107 222.196 268.4 222.516 268.592C222.847 268.773 223.263 268.864 223.764 268.864C224.074 268.864 224.351 268.827 224.596 268.752C224.842 268.667 225.05 268.549 225.22 268.4C225.391 268.24 225.524 268.053 225.62 267.84C225.716 267.616 225.764 267.365 225.764 267.088H227.396C227.396 267.589 227.311 268.032 227.14 268.416C226.97 268.8 226.719 269.125 226.388 269.392C226.068 269.648 225.684 269.845 225.236 269.984C224.788 270.123 224.292 270.192 223.748 270.192ZM221.556 264.992H225.684C225.684 264.576 225.636 264.229 225.54 263.952C225.455 263.664 225.327 263.429 225.156 263.248C224.986 263.067 224.783 262.939 224.548 262.864C224.314 262.779 224.047 262.736 223.748 262.736C223.3 262.736 222.916 262.816 222.596 262.976C222.287 263.136 222.047 263.387 221.876 263.728C221.706 264.059 221.599 264.48 221.556 264.992ZM229.776 267.04L229.328 259.024H231.28L230.832 267.04H229.776ZM229.408 270V268.144H231.2V270H229.408Z" fill="#666666"/>
</g>
<circle cx="828" cy="265" r="26" fill="#FF594B"/>
<path d="M836.977 256.084C838.124 255.683 839.226 256.785 838.825 257.931L832.134 277.03C831.699 278.269 829.971 278.339 829.438 277.14L826.209 269.883L830.754 265.343C830.904 265.182 830.985 264.97 830.981 264.751C830.977 264.532 830.888 264.323 830.733 264.168C830.578 264.013 830.369 263.924 830.149 263.92C829.93 263.916 829.717 263.997 829.557 264.147L825.011 268.686L817.747 265.461C816.546 264.927 816.618 263.203 817.857 262.768L836.977 256.084Z" fill="#F8F8F8"/>
<rect x="135.5" y="88.5" width="102" height="55" rx="27.5" fill="#FF594B"/>
<rect x="135.5" y="88.5" width="102" height="55" rx="27.5" stroke="#FF594B"/>
<path d="M166.296 121V110.024H168.088V114.616H173.656V110.024H175.448V121H173.656V116.152H168.088V121H166.296ZM181.31 121.192C180.446 121.192 179.721 121.037 179.134 120.728C178.558 120.408 178.121 119.923 177.822 119.272C177.523 118.621 177.374 117.795 177.374 116.792C177.374 115.779 177.523 114.952 177.822 114.312C178.121 113.661 178.563 113.181 179.15 112.872C179.737 112.552 180.467 112.392 181.342 112.392C182.142 112.392 182.809 112.547 183.342 112.856C183.886 113.155 184.297 113.613 184.574 114.232C184.851 114.851 184.99 115.629 184.99 116.568V117.208H179.086C179.107 117.805 179.198 118.307 179.358 118.712C179.518 119.107 179.758 119.4 180.078 119.592C180.409 119.773 180.825 119.864 181.326 119.864C181.635 119.864 181.913 119.827 182.158 119.752C182.403 119.667 182.611 119.549 182.782 119.4C182.953 119.24 183.086 119.053 183.182 118.84C183.278 118.616 183.326 118.365 183.326 118.088H184.958C184.958 118.589 184.873 119.032 184.702 119.416C184.531 119.8 184.281 120.125 183.95 120.392C183.63 120.648 183.246 120.845 182.798 120.984C182.35 121.123 181.854 121.192 181.31 121.192ZM179.118 115.992H183.246C183.246 115.576 183.198 115.229 183.102 114.952C183.017 114.664 182.889 114.429 182.718 114.248C182.547 114.067 182.345 113.939 182.11 113.864C181.875 113.779 181.609 113.736 181.31 113.736C180.862 113.736 180.478 113.816 180.158 113.976C179.849 114.136 179.609 114.387 179.438 114.728C179.267 115.059 179.161 115.48 179.118 115.992ZM186.681 121V109.432H188.345V121H186.681ZM190.494 121V109.432H192.158V121H190.494ZM197.89 121.192C197.016 121.192 196.274 121.037 195.666 120.728C195.069 120.408 194.616 119.923 194.306 119.272C194.008 118.621 193.858 117.795 193.858 116.792C193.858 115.779 194.008 114.952 194.306 114.312C194.616 113.661 195.069 113.181 195.666 112.872C196.274 112.552 197.016 112.392 197.89 112.392C198.786 112.392 199.533 112.552 200.13 112.872C200.728 113.181 201.176 113.661 201.474 114.312C201.784 114.952 201.938 115.779 201.938 116.792C201.938 117.795 201.784 118.621 201.474 119.272C201.176 119.923 200.728 120.408 200.13 120.728C199.533 121.037 198.786 121.192 197.89 121.192ZM197.89 119.816C198.424 119.816 198.861 119.715 199.202 119.512C199.544 119.299 199.794 118.979 199.954 118.552C200.125 118.125 200.21 117.587 200.21 116.936V116.648C200.21 115.997 200.125 115.459 199.954 115.032C199.794 114.605 199.544 114.291 199.202 114.088C198.861 113.875 198.424 113.768 197.89 113.768C197.368 113.768 196.936 113.875 196.594 114.088C196.253 114.291 195.997 114.605 195.826 115.032C195.666 115.459 195.586 115.997 195.586 116.648V116.936C195.586 117.587 195.666 118.125 195.826 118.552C195.997 118.979 196.253 119.299 196.594 119.512C196.936 119.715 197.368 119.816 197.89 119.816ZM204.291 118.04L203.843 110.024H205.795L205.347 118.04H204.291ZM203.923 121V119.144H205.715V121H203.923Z" fill="#F8F8F8"/>
<rect x="135.5" y="154.5" width="362" height="55" rx="27.5" fill="#FF594B"/>
<rect x="135.5" y="154.5" width="362" height="55" rx="27.5" stroke="#FF594B"/>
<path d="M166.296 187V176.024H168.088V187H166.296ZM170.463 180.344V179.608C170.697 179.565 170.889 179.464 171.039 179.304C171.188 179.133 171.295 178.925 171.359 178.68C171.423 178.435 171.455 178.168 171.455 177.88H170.607V176.024H172.399V177.704C172.399 178.312 172.303 178.803 172.111 179.176C171.919 179.539 171.673 179.811 171.375 179.992C171.087 180.163 170.783 180.28 170.463 180.344ZM174.275 187V178.584H175.651L175.795 179.784H175.907C176.099 179.475 176.318 179.219 176.563 179.016C176.819 178.813 177.102 178.659 177.411 178.552C177.731 178.445 178.072 178.392 178.435 178.392C178.958 178.392 179.411 178.499 179.795 178.712C180.19 178.925 180.488 179.283 180.691 179.784H180.803C180.995 179.485 181.219 179.235 181.475 179.032C181.731 178.819 182.019 178.659 182.339 178.552C182.67 178.445 183.022 178.392 183.395 178.392C183.896 178.392 184.339 178.483 184.723 178.664C185.107 178.835 185.411 179.128 185.635 179.544C185.859 179.949 185.971 180.493 185.971 181.176V187H184.307V181.48C184.307 181.16 184.27 180.899 184.195 180.696C184.12 180.483 184.019 180.317 183.891 180.2C183.763 180.072 183.608 179.981 183.427 179.928C183.246 179.875 183.048 179.848 182.835 179.848C182.483 179.848 182.168 179.944 181.891 180.136C181.614 180.317 181.39 180.573 181.219 180.904C181.048 181.235 180.963 181.624 180.963 182.072V187H179.299V181.48C179.299 181.16 179.262 180.899 179.187 180.696C179.112 180.483 179.011 180.317 178.883 180.2C178.755 180.072 178.6 179.981 178.419 179.928C178.238 179.875 178.046 179.848 177.843 179.848C177.491 179.848 177.171 179.944 176.883 180.136C176.595 180.317 176.366 180.573 176.195 180.904C176.024 181.235 175.939 181.624 175.939 182.072V187H174.275ZM192.234 189.912C191.914 189.912 191.647 189.885 191.434 189.832C191.221 189.789 191.087 189.763 191.034 189.752V188.552H191.834C192.069 188.552 192.303 188.499 192.538 188.392C192.783 188.285 193.002 188.115 193.194 187.88C193.386 187.645 193.546 187.352 193.674 187L190.394 178.584H192.138L193.77 182.776C193.845 182.968 193.925 183.208 194.01 183.496C194.106 183.784 194.197 184.077 194.282 184.376C194.378 184.675 194.458 184.941 194.522 185.176H194.602C194.655 185.016 194.709 184.835 194.762 184.632C194.826 184.419 194.89 184.2 194.954 183.976C195.018 183.752 195.082 183.539 195.146 183.336C195.21 183.123 195.263 182.941 195.306 182.792L196.666 178.584H198.362L195.514 186.68C195.354 187.128 195.178 187.549 194.986 187.944C194.794 188.339 194.57 188.68 194.314 188.968C194.069 189.267 193.775 189.496 193.434 189.656C193.093 189.827 192.693 189.912 192.234 189.912ZM203.125 187.192C202.25 187.192 201.509 187.037 200.901 186.728C200.303 186.408 199.85 185.923 199.541 185.272C199.242 184.621 199.093 183.795 199.093 182.792C199.093 181.779 199.242 180.952 199.541 180.312C199.85 179.661 200.303 179.181 200.901 178.872C201.509 178.552 202.25 178.392 203.125 178.392C204.021 178.392 204.767 178.552 205.365 178.872C205.962 179.181 206.41 179.661 206.709 180.312C207.018 180.952 207.173 181.779 207.173 182.792C207.173 183.795 207.018 184.621 206.709 185.272C206.41 185.923 205.962 186.408 205.365 186.728C204.767 187.037 204.021 187.192 203.125 187.192ZM203.125 185.816C203.658 185.816 204.095 185.715 204.437 185.512C204.778 185.299 205.029 184.979 205.189 184.552C205.359 184.125 205.445 183.587 205.445 182.936V182.648C205.445 181.997 205.359 181.459 205.189 181.032C205.029 180.605 204.778 180.291 204.437 180.088C204.095 179.875 203.658 179.768 203.125 179.768C202.602 179.768 202.17 179.875 201.829 180.088C201.487 180.291 201.231 180.605 201.061 181.032C200.901 181.459 200.821 181.997 200.821 182.648V182.936C200.821 183.587 200.901 184.125 201.061 184.552C201.231 184.979 201.487 185.299 201.829 185.512C202.17 185.715 202.602 185.816 203.125 185.816ZM211.509 187.192C210.698 187.192 210.042 186.979 209.541 186.552C209.04 186.115 208.789 185.373 208.789 184.328V178.584H210.453V184.072C210.453 184.392 210.49 184.659 210.565 184.872C210.65 185.085 210.768 185.256 210.917 185.384C211.066 185.512 211.242 185.603 211.445 185.656C211.648 185.709 211.872 185.736 212.117 185.736C212.501 185.736 212.848 185.645 213.157 185.464C213.477 185.272 213.733 185.011 213.925 184.68C214.117 184.339 214.213 183.949 214.213 183.512V178.584H215.877V187H214.517L214.373 185.8H214.261C214.058 186.109 213.818 186.365 213.541 186.568C213.264 186.771 212.954 186.925 212.613 187.032C212.282 187.139 211.914 187.192 211.509 187.192ZM218.025 187V178.584H219.401L219.545 179.944H219.641C219.737 179.677 219.86 179.427 220.009 179.192C220.169 178.957 220.372 178.765 220.617 178.616C220.873 178.467 221.182 178.392 221.545 178.392C221.716 178.392 221.865 178.408 221.993 178.44C222.132 178.472 222.238 178.499 222.313 178.52V180.088H221.753C221.412 180.088 221.108 180.141 220.841 180.248C220.585 180.355 220.366 180.515 220.185 180.728C220.014 180.931 219.886 181.181 219.801 181.48C219.726 181.779 219.689 182.115 219.689 182.488V187H218.025ZM226.525 189.768V178.584H227.885L228.029 179.736H228.141C228.429 179.288 228.797 178.952 229.245 178.728C229.693 178.504 230.194 178.392 230.749 178.392C231.442 178.392 232.034 178.547 232.525 178.856C233.026 179.165 233.41 179.645 233.677 180.296C233.944 180.947 234.077 181.789 234.077 182.824C234.077 183.827 233.938 184.653 233.661 185.304C233.394 185.944 233.016 186.419 232.525 186.728C232.034 187.037 231.469 187.192 230.829 187.192C230.456 187.192 230.109 187.149 229.789 187.064C229.469 186.979 229.181 186.845 228.925 186.664C228.68 186.483 228.466 186.253 228.285 185.976H228.189V189.768H226.525ZM230.253 185.752C230.754 185.752 231.16 185.656 231.469 185.464C231.778 185.261 232.002 184.952 232.141 184.536C232.29 184.12 232.365 183.592 232.365 182.952V182.664C232.365 181.992 232.29 181.448 232.141 181.032C231.992 180.616 231.762 180.312 231.453 180.12C231.154 179.928 230.765 179.832 230.285 179.832C229.794 179.832 229.394 179.944 229.085 180.168C228.776 180.381 228.546 180.701 228.397 181.128C228.258 181.555 228.189 182.072 228.189 182.68V182.904C228.189 183.405 228.237 183.837 228.333 184.2C228.429 184.563 228.568 184.861 228.749 185.096C228.93 185.32 229.149 185.485 229.405 185.592C229.661 185.699 229.944 185.752 230.253 185.752ZM239.279 187.192C238.415 187.192 237.689 187.037 237.103 186.728C236.527 186.408 236.089 185.923 235.791 185.272C235.492 184.621 235.343 183.795 235.343 182.792C235.343 181.779 235.492 180.952 235.791 180.312C236.089 179.661 236.532 179.181 237.119 178.872C237.705 178.552 238.436 178.392 239.311 178.392C240.111 178.392 240.777 178.547 241.311 178.856C241.855 179.155 242.265 179.613 242.543 180.232C242.82 180.851 242.959 181.629 242.959 182.568V183.208H237.055C237.076 183.805 237.167 184.307 237.327 184.712C237.487 185.107 237.727 185.4 238.047 185.592C238.377 185.773 238.793 185.864 239.295 185.864C239.604 185.864 239.881 185.827 240.127 185.752C240.372 185.667 240.58 185.549 240.751 185.4C240.921 185.24 241.055 185.053 241.151 184.84C241.247 184.616 241.295 184.365 241.295 184.088H242.927C242.927 184.589 242.841 185.032 242.671 185.416C242.5 185.8 242.249 186.125 241.919 186.392C241.599 186.648 241.215 186.845 240.767 186.984C240.319 187.123 239.823 187.192 239.279 187.192ZM237.087 181.992H241.215C241.215 181.576 241.167 181.229 241.071 180.952C240.985 180.664 240.857 180.429 240.687 180.248C240.516 180.067 240.313 179.939 240.079 179.864C239.844 179.779 239.577 179.736 239.279 179.736C238.831 179.736 238.447 179.816 238.127 179.976C237.817 180.136 237.577 180.387 237.407 180.728C237.236 181.059 237.129 181.48 237.087 181.992ZM244.65 187V178.584H246.026L246.17 179.944H246.266C246.362 179.677 246.485 179.427 246.634 179.192C246.794 178.957 246.997 178.765 247.242 178.616C247.498 178.467 247.807 178.392 248.17 178.392C248.341 178.392 248.49 178.408 248.618 178.44C248.757 178.472 248.863 178.499 248.938 178.52V180.088H248.378C248.037 180.088 247.733 180.141 247.466 180.248C247.21 180.355 246.991 180.515 246.81 180.728C246.639 180.931 246.511 181.181 246.426 181.48C246.351 181.779 246.314 182.115 246.314 182.488V187H244.65ZM253.285 187.192C252.699 187.192 252.181 187.128 251.733 187C251.285 186.872 250.912 186.696 250.613 186.472C250.315 186.248 250.085 185.981 249.925 185.672C249.776 185.352 249.701 185 249.701 184.616C249.701 184.563 249.701 184.515 249.701 184.472C249.712 184.429 249.717 184.392 249.717 184.36H251.365C251.365 184.392 251.365 184.424 251.365 184.456C251.365 184.477 251.365 184.504 251.365 184.536C251.365 184.867 251.456 185.133 251.637 185.336C251.819 185.528 252.059 185.667 252.357 185.752C252.667 185.827 253.003 185.864 253.365 185.864C253.685 185.864 253.979 185.827 254.245 185.752C254.523 185.667 254.747 185.544 254.917 185.384C255.099 185.224 255.189 185.021 255.189 184.776C255.189 184.456 255.077 184.211 254.853 184.04C254.629 183.869 254.336 183.736 253.973 183.64C253.611 183.533 253.232 183.421 252.837 183.304C252.485 183.208 252.133 183.107 251.781 183C251.44 182.883 251.131 182.733 250.853 182.552C250.576 182.371 250.352 182.141 250.181 181.864C250.011 181.587 249.925 181.24 249.925 180.824C249.925 180.429 250.011 180.083 250.181 179.784C250.352 179.485 250.587 179.235 250.885 179.032C251.195 178.829 251.557 178.675 251.973 178.568C252.4 178.461 252.864 178.408 253.365 178.408C253.888 178.408 254.352 178.467 254.757 178.584C255.163 178.691 255.504 178.845 255.781 179.048C256.069 179.251 256.288 179.496 256.437 179.784C256.587 180.061 256.661 180.36 256.661 180.68C256.661 180.744 256.656 180.813 256.645 180.888C256.645 180.952 256.645 180.995 256.645 181.016H255.013V180.872C255.013 180.659 254.955 180.467 254.837 180.296C254.72 180.125 254.533 179.987 254.277 179.88C254.032 179.773 253.701 179.72 253.285 179.72C253.008 179.72 252.763 179.747 252.549 179.8C252.336 179.843 252.16 179.907 252.021 179.992C251.883 180.077 251.776 180.179 251.701 180.296C251.637 180.413 251.605 180.547 251.605 180.696C251.605 180.941 251.691 181.133 251.861 181.272C252.043 181.4 252.277 181.512 252.565 181.608C252.853 181.693 253.163 181.789 253.493 181.896C253.877 182.003 254.267 182.115 254.661 182.232C255.056 182.339 255.419 182.477 255.749 182.648C256.091 182.819 256.363 183.053 256.565 183.352C256.779 183.651 256.885 184.051 256.885 184.552C256.885 185.011 256.795 185.411 256.613 185.752C256.432 186.093 256.176 186.371 255.845 186.584C255.525 186.787 255.147 186.936 254.709 187.032C254.272 187.139 253.797 187.192 253.285 187.192ZM262.156 187.192C261.281 187.192 260.54 187.037 259.932 186.728C259.335 186.408 258.881 185.923 258.572 185.272C258.273 184.621 258.124 183.795 258.124 182.792C258.124 181.779 258.273 180.952 258.572 180.312C258.881 179.661 259.335 179.181 259.932 178.872C260.54 178.552 261.281 178.392 262.156 178.392C263.052 178.392 263.799 178.552 264.396 178.872C264.993 179.181 265.441 179.661 265.74 180.312C266.049 180.952 266.204 181.779 266.204 182.792C266.204 183.795 266.049 184.621 265.74 185.272C265.441 185.923 264.993 186.408 264.396 186.728C263.799 187.037 263.052 187.192 262.156 187.192ZM262.156 185.816C262.689 185.816 263.127 185.715 263.468 185.512C263.809 185.299 264.06 184.979 264.22 184.552C264.391 184.125 264.476 183.587 264.476 182.936V182.648C264.476 181.997 264.391 181.459 264.22 181.032C264.06 180.605 263.809 180.291 263.468 180.088C263.127 179.875 262.689 179.768 262.156 179.768C261.633 179.768 261.201 179.875 260.86 180.088C260.519 180.291 260.263 180.605 260.092 181.032C259.932 181.459 259.852 181.997 259.852 182.648V182.936C259.852 183.587 259.932 184.125 260.092 184.552C260.263 184.979 260.519 185.299 260.86 185.512C261.201 185.715 261.633 185.816 262.156 185.816ZM267.9 187V178.584H269.276L269.42 179.784H269.532C269.735 179.475 269.975 179.219 270.252 179.016C270.529 178.813 270.833 178.659 271.164 178.552C271.505 178.445 271.879 178.392 272.284 178.392C272.817 178.392 273.287 178.488 273.692 178.68C274.097 178.861 274.412 179.16 274.636 179.576C274.871 179.992 274.988 180.552 274.988 181.256V187H273.324V181.512C273.324 181.192 273.281 180.925 273.196 180.712C273.121 180.499 273.009 180.328 272.86 180.2C272.711 180.072 272.535 179.981 272.332 179.928C272.129 179.875 271.905 179.848 271.66 179.848C271.276 179.848 270.924 179.944 270.604 180.136C270.295 180.317 270.044 180.573 269.852 180.904C269.66 181.235 269.564 181.624 269.564 182.072V187H267.9ZM279.2 187.192C278.933 187.192 278.645 187.16 278.336 187.096C278.027 187.032 277.733 186.915 277.456 186.744C277.189 186.573 276.971 186.339 276.8 186.04C276.629 185.731 276.544 185.331 276.544 184.84C276.544 184.264 276.677 183.789 276.944 183.416C277.211 183.043 277.584 182.749 278.064 182.536C278.544 182.323 279.115 182.173 279.776 182.088C280.448 182.003 281.179 181.96 281.968 181.96V181.128C281.968 180.851 281.92 180.605 281.824 180.392C281.739 180.179 281.573 180.013 281.328 179.896C281.093 179.779 280.752 179.72 280.304 179.72C279.856 179.72 279.504 179.779 279.248 179.896C279.003 180.003 278.827 180.141 278.72 180.312C278.624 180.472 278.576 180.648 278.576 180.84V181.08H276.976C276.965 181.027 276.96 180.973 276.96 180.92C276.96 180.867 276.96 180.803 276.96 180.728C276.96 180.227 277.099 179.805 277.376 179.464C277.664 179.112 278.064 178.845 278.576 178.664C279.088 178.483 279.68 178.392 280.352 178.392C281.077 178.392 281.68 178.499 282.16 178.712C282.651 178.915 283.019 179.208 283.264 179.592C283.509 179.976 283.632 180.44 283.632 180.984V185.256C283.632 185.459 283.68 185.603 283.776 185.688C283.883 185.773 284.005 185.816 284.144 185.816H284.72V186.936C284.592 186.989 284.432 187.043 284.24 187.096C284.048 187.149 283.824 187.176 283.568 187.176C283.28 187.176 283.035 187.123 282.832 187.016C282.64 186.92 282.48 186.781 282.352 186.6C282.235 186.408 282.155 186.195 282.112 185.96H282.016C281.824 186.205 281.589 186.424 281.312 186.616C281.045 186.797 280.736 186.936 280.384 187.032C280.032 187.139 279.637 187.192 279.2 187.192ZM279.664 185.816C279.995 185.816 280.299 185.768 280.576 185.672C280.864 185.565 281.109 185.421 281.312 185.24C281.515 185.048 281.675 184.824 281.792 184.568C281.909 184.301 281.968 184.013 281.968 183.704V183.144C281.232 183.144 280.587 183.187 280.032 183.272C279.477 183.357 279.045 183.517 278.736 183.752C278.427 183.976 278.272 184.291 278.272 184.696C278.272 184.941 278.325 185.149 278.432 185.32C278.539 185.48 278.699 185.603 278.912 185.688C279.125 185.773 279.376 185.816 279.664 185.816ZM285.869 187V175.432H287.533V187H285.869ZM292.963 187V178.584H294.339L294.483 179.784H294.595C294.787 179.475 295.005 179.219 295.251 179.016C295.507 178.813 295.789 178.659 296.099 178.552C296.419 178.445 296.76 178.392 297.123 178.392C297.645 178.392 298.099 178.499 298.483 178.712C298.877 178.925 299.176 179.283 299.379 179.784H299.491C299.683 179.485 299.907 179.235 300.163 179.032C300.419 178.819 300.707 178.659 301.027 178.552C301.357 178.445 301.709 178.392 302.083 178.392C302.584 178.392 303.027 178.483 303.411 178.664C303.795 178.835 304.099 179.128 304.323 179.544C304.547 179.949 304.659 180.493 304.659 181.176V187H302.995V181.48C302.995 181.16 302.957 180.899 302.883 180.696C302.808 180.483 302.707 180.317 302.579 180.2C302.451 180.072 302.296 179.981 302.115 179.928C301.933 179.875 301.736 179.848 301.523 179.848C301.171 179.848 300.856 179.944 300.579 180.136C300.301 180.317 300.077 180.573 299.907 180.904C299.736 181.235 299.651 181.624 299.651 182.072V187H297.987V181.48C297.987 181.16 297.949 180.899 297.875 180.696C297.8 180.483 297.699 180.317 297.571 180.2C297.443 180.072 297.288 179.981 297.107 179.928C296.925 179.875 296.733 179.848 296.531 179.848C296.179 179.848 295.859 179.944 295.571 180.136C295.283 180.317 295.053 180.573 294.883 180.904C294.712 181.235 294.627 181.624 294.627 182.072V187H292.963ZM308.856 187.192C308.59 187.192 308.302 187.16 307.992 187.096C307.683 187.032 307.39 186.915 307.112 186.744C306.846 186.573 306.627 186.339 306.456 186.04C306.286 185.731 306.2 185.331 306.2 184.84C306.2 184.264 306.334 183.789 306.6 183.416C306.867 183.043 307.24 182.749 307.72 182.536C308.2 182.323 308.771 182.173 309.432 182.088C310.104 182.003 310.835 181.96 311.624 181.96V181.128C311.624 180.851 311.576 180.605 311.48 180.392C311.395 180.179 311.23 180.013 310.984 179.896C310.75 179.779 310.408 179.72 309.96 179.72C309.512 179.72 309.16 179.779 308.904 179.896C308.659 180.003 308.483 180.141 308.376 180.312C308.28 180.472 308.232 180.648 308.232 180.84V181.08H306.632C306.622 181.027 306.616 180.973 306.616 180.92C306.616 180.867 306.616 180.803 306.616 180.728C306.616 180.227 306.755 179.805 307.032 179.464C307.32 179.112 307.72 178.845 308.232 178.664C308.744 178.483 309.336 178.392 310.008 178.392C310.734 178.392 311.336 178.499 311.816 178.712C312.307 178.915 312.675 179.208 312.92 179.592C313.166 179.976 313.288 180.44 313.288 180.984V185.256C313.288 185.459 313.336 185.603 313.432 185.688C313.539 185.773 313.662 185.816 313.8 185.816H314.376V186.936C314.248 186.989 314.088 187.043 313.896 187.096C313.704 187.149 313.48 187.176 313.224 187.176C312.936 187.176 312.691 187.123 312.488 187.016C312.296 186.92 312.136 186.781 312.008 186.6C311.891 186.408 311.811 186.195 311.768 185.96H311.672C311.48 186.205 311.246 186.424 310.968 186.616C310.702 186.797 310.392 186.936 310.04 187.032C309.688 187.139 309.294 187.192 308.856 187.192ZM309.32 185.816C309.651 185.816 309.955 185.768 310.232 185.672C310.52 185.565 310.766 185.421 310.968 185.24C311.171 185.048 311.331 184.824 311.448 184.568C311.566 184.301 311.624 184.013 311.624 183.704V183.144C310.888 183.144 310.243 183.187 309.688 183.272C309.134 183.357 308.702 183.517 308.392 183.752C308.083 183.976 307.928 184.291 307.928 184.696C307.928 184.941 307.982 185.149 308.088 185.32C308.195 185.48 308.355 185.603 308.568 185.688C308.782 185.773 309.032 185.816 309.32 185.816ZM315.525 189.768V178.584H316.885L317.029 179.736H317.141C317.429 179.288 317.797 178.952 318.245 178.728C318.693 178.504 319.194 178.392 319.749 178.392C320.442 178.392 321.034 178.547 321.525 178.856C322.026 179.165 322.41 179.645 322.677 180.296C322.944 180.947 323.077 181.789 323.077 182.824C323.077 183.827 322.938 184.653 322.661 185.304C322.394 185.944 322.016 186.419 321.525 186.728C321.034 187.037 320.469 187.192 319.829 187.192C319.456 187.192 319.109 187.149 318.789 187.064C318.469 186.979 318.181 186.845 317.925 186.664C317.68 186.483 317.466 186.253 317.285 185.976H317.189V189.768H315.525ZM319.253 185.752C319.754 185.752 320.16 185.656 320.469 185.464C320.778 185.261 321.002 184.952 321.141 184.536C321.29 184.12 321.365 183.592 321.365 182.952V182.664C321.365 181.992 321.29 181.448 321.141 181.032C320.992 180.616 320.762 180.312 320.453 180.12C320.154 179.928 319.765 179.832 319.285 179.832C318.794 179.832 318.394 179.944 318.085 180.168C317.776 180.381 317.546 180.701 317.397 181.128C317.258 181.555 317.189 182.072 317.189 182.68V182.904C317.189 183.405 317.237 183.837 317.333 184.2C317.429 184.563 317.568 184.861 317.749 185.096C317.93 185.32 318.149 185.485 318.405 185.592C318.661 185.699 318.944 185.752 319.253 185.752ZM329.48 189.912C329.096 189.912 328.733 189.832 328.392 189.672C328.061 189.512 327.795 189.283 327.592 188.984C327.389 188.685 327.288 188.323 327.288 187.896C327.288 187.427 327.416 187.048 327.672 186.76C327.939 186.461 328.248 186.237 328.6 186.088C328.344 185.971 328.136 185.8 327.976 185.576C327.827 185.352 327.752 185.096 327.752 184.808C327.752 184.413 327.896 184.093 328.184 183.848C328.472 183.603 328.808 183.443 329.192 183.368C328.819 183.123 328.525 182.813 328.312 182.44C328.109 182.067 328.008 181.645 328.008 181.176C328.008 180.611 328.141 180.125 328.408 179.72C328.675 179.304 329.069 178.979 329.592 178.744C330.125 178.509 330.771 178.392 331.528 178.392C331.859 178.392 332.168 178.419 332.456 178.472C332.755 178.515 333.021 178.579 333.256 178.664C333.629 178.472 333.896 178.243 334.056 177.976C334.216 177.699 334.312 177.443 334.344 177.208H335.976C335.976 177.56 335.901 177.88 335.752 178.168C335.613 178.445 335.416 178.68 335.16 178.872C334.915 179.053 334.616 179.181 334.264 179.256C334.531 179.501 334.728 179.789 334.856 180.12C334.995 180.44 335.064 180.792 335.064 181.176C335.064 181.731 334.936 182.216 334.68 182.632C334.424 183.048 334.035 183.373 333.512 183.608C333 183.843 332.365 183.96 331.608 183.96H330.296C330.04 183.96 329.832 184.013 329.672 184.12C329.523 184.227 329.448 184.387 329.448 184.6C329.448 184.781 329.523 184.931 329.672 185.048C329.821 185.165 330.019 185.224 330.264 185.224H333.816C334.435 185.224 334.947 185.432 335.352 185.848C335.757 186.253 335.96 186.776 335.96 187.416C335.96 187.885 335.837 188.307 335.592 188.68C335.357 189.064 335.021 189.363 334.584 189.576C334.157 189.8 333.661 189.912 333.096 189.912H329.48ZM330.024 188.68H333.08C333.304 188.68 333.507 188.637 333.688 188.552C333.869 188.467 334.013 188.344 334.12 188.184C334.227 188.035 334.28 187.864 334.28 187.672C334.28 187.352 334.179 187.101 333.976 186.92C333.784 186.739 333.544 186.648 333.256 186.648H330.024C329.725 186.648 329.475 186.749 329.272 186.952C329.069 187.144 328.968 187.384 328.968 187.672C328.968 187.971 329.064 188.211 329.256 188.392C329.459 188.584 329.715 188.68 330.024 188.68ZM331.544 182.76C332.173 182.76 332.643 182.621 332.952 182.344C333.261 182.056 333.416 181.667 333.416 181.176C333.416 180.675 333.261 180.291 332.952 180.024C332.643 179.747 332.173 179.608 331.544 179.608C330.915 179.608 330.445 179.747 330.136 180.024C329.827 180.291 329.672 180.675 329.672 181.176C329.672 181.496 329.736 181.779 329.864 182.024C330.003 182.259 330.211 182.44 330.488 182.568C330.776 182.696 331.128 182.76 331.544 182.76ZM340.732 187.192C339.868 187.192 339.143 187.037 338.556 186.728C337.98 186.408 337.543 185.923 337.244 185.272C336.945 184.621 336.796 183.795 336.796 182.792C336.796 181.779 336.945 180.952 337.244 180.312C337.543 179.661 337.985 179.181 338.572 178.872C339.159 178.552 339.889 178.392 340.764 178.392C341.564 178.392 342.231 178.547 342.764 178.856C343.308 179.155 343.719 179.613 343.996 180.232C344.273 180.851 344.412 181.629 344.412 182.568V183.208H338.508C338.529 183.805 338.62 184.307 338.78 184.712C338.94 185.107 339.18 185.4 339.5 185.592C339.831 185.773 340.247 185.864 340.748 185.864C341.057 185.864 341.335 185.827 341.58 185.752C341.825 185.667 342.033 185.549 342.204 185.4C342.375 185.24 342.508 185.053 342.604 184.84C342.7 184.616 342.748 184.365 342.748 184.088H344.38C344.38 184.589 344.295 185.032 344.124 185.416C343.953 185.8 343.703 186.125 343.372 186.392C343.052 186.648 342.668 186.845 342.22 186.984C341.772 187.123 341.276 187.192 340.732 187.192ZM338.54 181.992H342.668C342.668 181.576 342.62 181.229 342.524 180.952C342.439 180.664 342.311 180.429 342.14 180.248C341.969 180.067 341.767 179.939 341.532 179.864C341.297 179.779 341.031 179.736 340.732 179.736C340.284 179.736 339.9 179.816 339.58 179.976C339.271 180.136 339.031 180.387 338.86 180.728C338.689 181.059 338.583 181.48 338.54 181.992ZM346.103 187V178.584H347.479L347.623 179.784H347.735C347.938 179.475 348.178 179.219 348.455 179.016C348.733 178.813 349.037 178.659 349.367 178.552C349.709 178.445 350.082 178.392 350.487 178.392C351.021 178.392 351.49 178.488 351.895 178.68C352.301 178.861 352.615 179.16 352.839 179.576C353.074 179.992 353.191 180.552 353.191 181.256V187H351.527V181.512C351.527 181.192 351.485 180.925 351.399 180.712C351.325 180.499 351.213 180.328 351.063 180.2C350.914 180.072 350.738 179.981 350.535 179.928C350.333 179.875 350.109 179.848 349.863 179.848C349.479 179.848 349.127 179.944 348.807 180.136C348.498 180.317 348.247 180.573 348.055 180.904C347.863 181.235 347.767 181.624 347.767 182.072V187H346.103ZM358.763 187.192C357.899 187.192 357.174 187.037 356.587 186.728C356.011 186.408 355.574 185.923 355.275 185.272C354.976 184.621 354.827 183.795 354.827 182.792C354.827 181.779 354.976 180.952 355.275 180.312C355.574 179.661 356.016 179.181 356.603 178.872C357.19 178.552 357.92 178.392 358.795 178.392C359.595 178.392 360.262 178.547 360.795 178.856C361.339 179.155 361.75 179.613 362.027 180.232C362.304 180.851 362.443 181.629 362.443 182.568V183.208H356.539C356.56 183.805 356.651 184.307 356.811 184.712C356.971 185.107 357.211 185.4 357.531 185.592C357.862 185.773 358.278 185.864 358.779 185.864C359.088 185.864 359.366 185.827 359.611 185.752C359.856 185.667 360.064 185.549 360.235 185.4C360.406 185.24 360.539 185.053 360.635 184.84C360.731 184.616 360.779 184.365 360.779 184.088H362.411C362.411 184.589 362.326 185.032 362.155 185.416C361.984 185.8 361.734 186.125 361.403 186.392C361.083 186.648 360.699 186.845 360.251 186.984C359.803 187.123 359.307 187.192 358.763 187.192ZM356.571 181.992H360.699C360.699 181.576 360.651 181.229 360.555 180.952C360.47 180.664 360.342 180.429 360.171 180.248C360 180.067 359.798 179.939 359.563 179.864C359.328 179.779 359.062 179.736 358.763 179.736C358.315 179.736 357.931 179.816 357.611 179.976C357.302 180.136 357.062 180.387 356.891 180.728C356.72 181.059 356.614 181.48 356.571 181.992ZM364.135 187V178.584H365.511L365.655 179.944H365.751C365.847 179.677 365.969 179.427 366.119 179.192C366.279 178.957 366.481 178.765 366.727 178.616C366.983 178.467 367.292 178.392 367.655 178.392C367.825 178.392 367.975 178.408 368.103 178.44C368.241 178.472 368.348 178.499 368.423 178.52V180.088H367.863C367.521 180.088 367.217 180.141 366.951 180.248C366.695 180.355 366.476 180.515 366.295 180.728C366.124 180.931 365.996 181.181 365.911 181.48C365.836 181.779 365.799 182.115 365.799 182.488V187H364.135ZM371.638 187.192C371.371 187.192 371.083 187.16 370.774 187.096C370.464 187.032 370.171 186.915 369.894 186.744C369.627 186.573 369.408 186.339 369.238 186.04C369.067 185.731 368.982 185.331 368.982 184.84C368.982 184.264 369.115 183.789 369.382 183.416C369.648 183.043 370.022 182.749 370.502 182.536C370.982 182.323 371.552 182.173 372.214 182.088C372.886 182.003 373.616 181.96 374.406 181.96V181.128C374.406 180.851 374.358 180.605 374.262 180.392C374.176 180.179 374.011 180.013 373.766 179.896C373.531 179.779 373.19 179.72 372.742 179.72C372.294 179.72 371.942 179.779 371.686 179.896C371.44 180.003 371.264 180.141 371.158 180.312C371.062 180.472 371.014 180.648 371.014 180.84V181.08H369.414C369.403 181.027 369.398 180.973 369.398 180.92C369.398 180.867 369.398 180.803 369.398 180.728C369.398 180.227 369.536 179.805 369.814 179.464C370.102 179.112 370.502 178.845 371.014 178.664C371.526 178.483 372.118 178.392 372.79 178.392C373.515 178.392 374.118 178.499 374.598 178.712C375.088 178.915 375.456 179.208 375.702 179.592C375.947 179.976 376.07 180.44 376.07 180.984V185.256C376.07 185.459 376.118 185.603 376.214 185.688C376.32 185.773 376.443 185.816 376.582 185.816H377.158V186.936C377.03 186.989 376.87 187.043 376.678 187.096C376.486 187.149 376.262 187.176 376.006 187.176C375.718 187.176 375.472 187.123 375.27 187.016C375.078 186.92 374.918 186.781 374.79 186.6C374.672 186.408 374.592 186.195 374.55 185.96H374.454C374.262 186.205 374.027 186.424 373.75 186.616C373.483 186.797 373.174 186.936 372.822 187.032C372.47 187.139 372.075 187.192 371.638 187.192ZM372.102 185.816C372.432 185.816 372.736 185.768 373.014 185.672C373.302 185.565 373.547 185.421 373.75 185.24C373.952 185.048 374.112 184.824 374.23 184.568C374.347 184.301 374.406 184.013 374.406 183.704V183.144C373.67 183.144 373.024 183.187 372.47 183.272C371.915 183.357 371.483 183.517 371.174 183.752C370.864 183.976 370.71 184.291 370.71 184.696C370.71 184.941 370.763 185.149 370.87 185.32C370.976 185.48 371.136 185.603 371.35 185.688C371.563 185.773 371.814 185.816 372.102 185.816ZM380.402 187.192C379.922 187.192 379.544 187.101 379.266 186.92C379 186.728 378.808 186.488 378.69 186.2C378.584 185.901 378.53 185.587 378.53 185.256V179.96H377.474V178.584H378.562L378.866 176.232H380.194V178.584H381.714V179.96H380.194V185.064C380.194 185.309 380.248 185.496 380.354 185.624C380.461 185.752 380.637 185.816 380.882 185.816H381.714V186.936C381.608 186.979 381.474 187.016 381.314 187.048C381.165 187.091 381.01 187.123 380.85 187.144C380.69 187.176 380.541 187.192 380.402 187.192ZM386.765 187.192C385.891 187.192 385.149 187.037 384.541 186.728C383.944 186.408 383.491 185.923 383.181 185.272C382.883 184.621 382.733 183.795 382.733 182.792C382.733 181.779 382.883 180.952 383.181 180.312C383.491 179.661 383.944 179.181 384.541 178.872C385.149 178.552 385.891 178.392 386.765 178.392C387.661 178.392 388.408 178.552 389.005 178.872C389.603 179.181 390.051 179.661 390.349 180.312C390.659 180.952 390.813 181.779 390.813 182.792C390.813 183.795 390.659 184.621 390.349 185.272C390.051 185.923 389.603 186.408 389.005 186.728C388.408 187.037 387.661 187.192 386.765 187.192ZM386.765 185.816C387.299 185.816 387.736 185.715 388.077 185.512C388.419 185.299 388.669 184.979 388.829 184.552C389 184.125 389.085 183.587 389.085 182.936V182.648C389.085 181.997 389 181.459 388.829 181.032C388.669 180.605 388.419 180.291 388.077 180.088C387.736 179.875 387.299 179.768 386.765 179.768C386.243 179.768 385.811 179.875 385.469 180.088C385.128 180.291 384.872 180.605 384.701 181.032C384.541 181.459 384.461 181.997 384.461 182.648V182.936C384.461 183.587 384.541 184.125 384.701 184.552C384.872 184.979 385.128 185.299 385.469 185.512C385.811 185.715 386.243 185.816 386.765 185.816ZM392.51 187V178.584H393.886L394.03 179.944H394.126C394.222 179.677 394.344 179.427 394.494 179.192C394.654 178.957 394.856 178.765 395.102 178.616C395.358 178.467 395.667 178.392 396.03 178.392C396.2 178.392 396.35 178.408 396.478 178.44C396.616 178.472 396.723 178.499 396.798 178.52V180.088H396.238C395.896 180.088 395.592 180.141 395.326 180.248C395.07 180.355 394.851 180.515 394.67 180.728C394.499 180.931 394.371 181.181 394.286 181.48C394.211 181.779 394.174 182.115 394.174 182.488V187H392.51ZM401.234 187V176.024H404.034L406.162 182.68C406.226 182.872 406.29 183.091 406.354 183.336C406.418 183.581 406.476 183.816 406.53 184.04C406.594 184.264 406.642 184.461 406.674 184.632H406.802C406.823 184.472 406.86 184.28 406.914 184.056C406.967 183.832 407.02 183.597 407.074 183.352C407.138 183.107 407.202 182.877 407.266 182.664L409.41 176.024H412.162V187H410.386V180.984C410.386 180.579 410.391 180.157 410.402 179.72C410.412 179.283 410.423 178.893 410.434 178.552C410.444 178.211 410.45 177.992 410.45 177.896H410.322C410.3 178.013 410.247 178.216 410.162 178.504C410.087 178.781 410.007 179.08 409.922 179.4C409.836 179.72 409.756 179.997 409.682 180.232L407.458 187H405.874L403.65 180.248C403.586 180.045 403.516 179.805 403.442 179.528C403.367 179.251 403.292 178.968 403.218 178.68C403.143 178.392 403.079 178.131 403.026 177.896H402.898C402.908 178.152 402.914 178.467 402.914 178.84C402.924 179.213 402.935 179.592 402.946 179.976C402.956 180.349 402.962 180.685 402.962 180.984V187H401.234ZM416.669 187.192C416.402 187.192 416.114 187.16 415.805 187.096C415.495 187.032 415.202 186.915 414.925 186.744C414.658 186.573 414.439 186.339 414.269 186.04C414.098 185.731 414.013 185.331 414.013 184.84C414.013 184.264 414.146 183.789 414.413 183.416C414.679 183.043 415.053 182.749 415.533 182.536C416.013 182.323 416.583 182.173 417.245 182.088C417.917 182.003 418.647 181.96 419.437 181.96V181.128C419.437 180.851 419.389 180.605 419.293 180.392C419.207 180.179 419.042 180.013 418.797 179.896C418.562 179.779 418.221 179.72 417.773 179.72C417.325 179.72 416.973 179.779 416.717 179.896C416.471 180.003 416.295 180.141 416.189 180.312C416.093 180.472 416.045 180.648 416.045 180.84V181.08H414.445C414.434 181.027 414.429 180.973 414.429 180.92C414.429 180.867 414.429 180.803 414.429 180.728C414.429 180.227 414.567 179.805 414.845 179.464C415.133 179.112 415.533 178.845 416.045 178.664C416.557 178.483 417.149 178.392 417.821 178.392C418.546 178.392 419.149 178.499 419.629 178.712C420.119 178.915 420.487 179.208 420.733 179.592C420.978 179.976 421.101 180.44 421.101 180.984V185.256C421.101 185.459 421.149 185.603 421.245 185.688C421.351 185.773 421.474 185.816 421.613 185.816H422.189V186.936C422.061 186.989 421.901 187.043 421.709 187.096C421.517 187.149 421.293 187.176 421.037 187.176C420.749 187.176 420.503 187.123 420.301 187.016C420.109 186.92 419.949 186.781 419.821 186.6C419.703 186.408 419.623 186.195 419.581 185.96H419.485C419.293 186.205 419.058 186.424 418.781 186.616C418.514 186.797 418.205 186.936 417.853 187.032C417.501 187.139 417.106 187.192 416.669 187.192ZM417.133 185.816C417.463 185.816 417.767 185.768 418.045 185.672C418.333 185.565 418.578 185.421 418.781 185.24C418.983 185.048 419.143 184.824 419.261 184.568C419.378 184.301 419.437 184.013 419.437 183.704V183.144C418.701 183.144 418.055 183.187 417.501 183.272C416.946 183.357 416.514 183.517 416.205 183.752C415.895 183.976 415.741 184.291 415.741 184.696C415.741 184.941 415.794 185.149 415.901 185.32C416.007 185.48 416.167 185.603 416.381 185.688C416.594 185.773 416.845 185.816 417.133 185.816ZM423.338 189.768V178.584H424.698L424.842 179.736H424.954C425.242 179.288 425.61 178.952 426.058 178.728C426.506 178.504 427.007 178.392 427.562 178.392C428.255 178.392 428.847 178.547 429.338 178.856C429.839 179.165 430.223 179.645 430.49 180.296C430.756 180.947 430.89 181.789 430.89 182.824C430.89 183.827 430.751 184.653 430.474 185.304C430.207 185.944 429.828 186.419 429.338 186.728C428.847 187.037 428.282 187.192 427.642 187.192C427.268 187.192 426.922 187.149 426.602 187.064C426.282 186.979 425.994 186.845 425.738 186.664C425.492 186.483 425.279 186.253 425.098 185.976H425.002V189.768H423.338ZM427.066 185.752C427.567 185.752 427.972 185.656 428.282 185.464C428.591 185.261 428.815 184.952 428.954 184.536C429.103 184.12 429.178 183.592 429.178 182.952V182.664C429.178 181.992 429.103 181.448 428.954 181.032C428.804 180.616 428.575 180.312 428.266 180.12C427.967 179.928 427.578 179.832 427.098 179.832C426.607 179.832 426.207 179.944 425.898 180.168C425.588 180.381 425.359 180.701 425.21 181.128C425.071 181.555 425.002 182.072 425.002 182.68V182.904C425.002 183.405 425.05 183.837 425.146 184.2C425.242 184.563 425.38 184.861 425.562 185.096C425.743 185.32 425.962 185.485 426.218 185.592C426.474 185.699 426.756 185.752 427.066 185.752ZM432.603 189.768V178.584H433.963L434.107 179.736H434.219C434.507 179.288 434.875 178.952 435.323 178.728C435.771 178.504 436.273 178.392 436.827 178.392C437.521 178.392 438.113 178.547 438.603 178.856C439.105 179.165 439.489 179.645 439.755 180.296C440.022 180.947 440.155 181.789 440.155 182.824C440.155 183.827 440.017 184.653 439.739 185.304C439.473 185.944 439.094 186.419 438.603 186.728C438.113 187.037 437.547 187.192 436.907 187.192C436.534 187.192 436.187 187.149 435.867 187.064C435.547 186.979 435.259 186.845 435.003 186.664C434.758 186.483 434.545 186.253 434.363 185.976H434.267V189.768H432.603ZM436.331 185.752C436.833 185.752 437.238 185.656 437.547 185.464C437.857 185.261 438.081 184.952 438.219 184.536C438.369 184.12 438.443 183.592 438.443 182.952V182.664C438.443 181.992 438.369 181.448 438.219 181.032C438.07 180.616 437.841 180.312 437.531 180.12C437.233 179.928 436.843 179.832 436.363 179.832C435.873 179.832 435.473 179.944 435.163 180.168C434.854 180.381 434.625 180.701 434.475 181.128C434.337 181.555 434.267 182.072 434.267 182.68V182.904C434.267 183.405 434.315 183.837 434.411 184.2C434.507 184.563 434.646 184.861 434.827 185.096C435.009 185.32 435.227 185.485 435.483 185.592C435.739 185.699 436.022 185.752 436.331 185.752ZM441.869 177.128V175.432H443.533V177.128H441.869ZM441.869 187V178.584H443.533V187H441.869ZM449.169 187.192C448.305 187.192 447.58 187.037 446.993 186.728C446.417 186.408 445.98 185.923 445.681 185.272C445.383 184.621 445.233 183.795 445.233 182.792C445.233 181.779 445.383 180.952 445.681 180.312C445.98 179.661 446.423 179.181 447.009 178.872C447.596 178.552 448.327 178.392 449.201 178.392C450.001 178.392 450.668 178.547 451.201 178.856C451.745 179.155 452.156 179.613 452.433 180.232C452.711 180.851 452.849 181.629 452.849 182.568V183.208H446.945C446.967 183.805 447.057 184.307 447.217 184.712C447.377 185.107 447.617 185.4 447.937 185.592C448.268 185.773 448.684 185.864 449.185 185.864C449.495 185.864 449.772 185.827 450.017 185.752C450.263 185.667 450.471 185.549 450.641 185.4C450.812 185.24 450.945 185.053 451.041 184.84C451.137 184.616 451.185 184.365 451.185 184.088H452.817C452.817 184.589 452.732 185.032 452.561 185.416C452.391 185.8 452.14 186.125 451.809 186.392C451.489 186.648 451.105 186.845 450.657 186.984C450.209 187.123 449.713 187.192 449.169 187.192ZM446.977 181.992H451.105C451.105 181.576 451.057 181.229 450.961 180.952C450.876 180.664 450.748 180.429 450.577 180.248C450.407 180.067 450.204 179.939 449.969 179.864C449.735 179.779 449.468 179.736 449.169 179.736C448.721 179.736 448.337 179.816 448.017 179.976C447.708 180.136 447.468 180.387 447.297 180.728C447.127 181.059 447.02 181.48 446.977 181.992ZM458.382 180.44V178.584H460.158V180.44H458.382ZM458.382 187V185.144H460.158V187H458.382ZM463.621 175.24C464.528 176.232 465.216 177.347 465.685 178.584C466.165 179.811 466.405 181.085 466.405 182.408C466.405 183.709 466.165 184.979 465.685 186.216C465.216 187.443 464.528 188.547 463.621 189.528H462.549C462.976 188.877 463.36 188.163 463.701 187.384C464.042 186.605 464.309 185.795 464.501 184.952C464.704 184.099 464.805 183.251 464.805 182.408C464.805 181.555 464.704 180.701 464.501 179.848C464.309 178.995 464.042 178.179 463.701 177.4C463.36 176.611 462.976 175.891 462.549 175.24H463.621Z" fill="#F8F8F8"/>
<circle cx="99" cy="116" r="26" fill="#F7F7F7"/>
<path d="M95.3333 124.556L88.9656 126.679C88.8552 126.715 88.7377 126.725 88.6227 126.708C88.5077 126.69 88.3986 126.646 88.3042 126.578C88.2099 126.51 88.1331 126.42 88.0802 126.316C88.0273 126.213 87.9998 126.098 88 125.982V107.974C88 107.82 88.0484 107.67 88.1384 107.545C88.2283 107.42 88.3552 107.327 88.5011 107.278L95.3333 105M95.3333 124.556L102.667 127L95.3333 124.556ZM95.3333 124.556V105V124.556ZM102.667 127L109.499 124.723C109.645 124.674 109.772 124.581 109.862 124.456C109.952 124.331 110 124.18 110 124.026V106.017C110 105.901 109.972 105.786 109.919 105.683C109.866 105.579 109.79 105.49 109.695 105.422C109.601 105.354 109.492 105.31 109.377 105.292C109.262 105.275 109.145 105.285 109.034 105.321L102.667 107.444M102.667 127V107.444V127ZM102.667 107.444L95.3333 105L102.667 107.444Z" fill="#FF594B"/>
<path d="M95.3333 124.556L88.9656 126.679C88.8552 126.715 88.7377 126.725 88.6227 126.708C88.5077 126.69 88.3986 126.646 88.3042 126.578C88.2099 126.51 88.1331 126.42 88.0802 126.316C88.0273 126.213 87.9998 126.098 88 125.982V107.974C88 107.82 88.0484 107.67 88.1384 107.545C88.2283 107.42 88.3552 107.327 88.5011 107.278L95.3333 105M95.3333 124.556L102.667 127M95.3333 124.556V105M95.3333 105L102.667 107.444M102.667 127L109.499 124.723C109.645 124.674 109.772 124.581 109.862 124.456C109.952 124.331 110 124.18 110 124.026V106.017C110 105.901 109.972 105.786 109.919 105.683C109.866 105.579 109.79 105.49 109.695 105.422C109.601 105.354 109.492 105.31 109.377 105.292C109.262 105.275 109.145 105.285 109.034 105.321L102.667 107.444M102.667 127V107.444" stroke="#FF594B" stroke-width="2.01892" stroke-linecap="round" stroke-linejoin="round"/>
<path d="M102.344 108.117L96.108 106.246L95.4844 123.708L102.344 126.203V108.117Z" fill="#FF594B" stroke="#FF594B" stroke-width="1.24729"/>
<rect x="92.7432" y="111.367" width="11.9085" height="10.5853" fill="#F8F8F8"/>
<mask id="mask0_240_4144" style="mask-type:luminance" maskUnits="userSpaceOnUse" x="87" y="105" width="22" height="21">
<path d="M98.3012 106.075C103.562 106.075 107.828 110.341 107.828 115.602C107.828 120.863 103.562 125.129 98.3012 125.129C93.0403 125.129 88.7744 120.863 88.7744 115.602C88.7744 110.341 93.0403 106.075 98.3012 106.075Z" fill="white" stroke="white" stroke-width="1.58277" stroke-linecap="round" stroke-linejoin="round"/>
<path d="M95.124 112.425V113.483" stroke="black" stroke-width="1.58277" stroke-linecap="round" stroke-linejoin="round"/>
<path d="M100.947 112.956H102.006" stroke="black" stroke-width="1.58277" stroke-linecap="round" stroke-linejoin="round"/>
<path d="M94.0664 117.719C94.5957 119.307 95.9612 120.894 98.3005 120.894C100.64 120.894 102.005 119.307 102.535 117.719" stroke="black" stroke-width="1.58277" stroke-linecap="round" stroke-linejoin="round"/>
</mask>
<g mask="url(#mask0_240_4144)">
<path d="M104.652 110.046H92.7432V123.278H104.652V110.046Z" fill="#FF594B"/>
</g>
<rect x="92.7432" y="111.367" width="11.9085" height="10.5853" fill="#F8F8F8"/>
<mask id="mask1_240_4144" style="mask-type:luminance" maskUnits="userSpaceOnUse" x="87" y="105" width="22" height="21">
<path d="M98.3012 106.075C103.562 106.075 107.828 110.341 107.828 115.602C107.828 120.863 103.562 125.129 98.3012 125.129C93.0403 125.129 88.7744 120.863 88.7744 115.602C88.7744 110.341 93.0403 106.075 98.3012 106.075Z" fill="white" stroke="white" stroke-width="1.58277" stroke-linecap="round" stroke-linejoin="round"/>
<path d="M95.124 112.425V113.483" stroke="black" stroke-width="1.58277" stroke-linecap="round" stroke-linejoin="round"/>
<path d="M100.947 112.956H102.006" stroke="black" stroke-width="1.58277" stroke-linecap="round" stroke-linejoin="round"/>
<path d="M94.0664 117.719C94.5957 119.307 95.9612 120.894 98.3005 120.894C100.64 120.894 102.005 119.307 102.535 117.719" stroke="black" stroke-width="1.58277" stroke-linecap="round" stroke-linejoin="round"/>
</mask>
<g mask="url(#mask1_240_4144)">
<path d="M107 108H90V124H107V108Z" fill="#FF594B"/>
</g>
</g>
<defs>
<filter id="filter0_b_240_4144" x="-80" y="-80" width="1087" height="484" filterUnits="userSpaceOnUse" color-interpolation-filters="sRGB">
<feFlood flood-opacity="0" result="BackgroundImageFix"/>
<feGaussianBlur in="BackgroundImageFix" stdDeviation="40"/>
<feComposite in2="SourceAlpha" operator="in" result="effect1_backgroundBlur_240_4144"/>
<feBlend mode="normal" in="SourceGraphic" in2="effect1_backgroundBlur_240_4144" result="shape"/>
</filter>
<filter id="filter1_i_240_4144" x="73" y="237" width="719" height="56" filterUnits="userSpaceOnUse" color-interpolation-filters="sRGB">
<feFlood flood-opacity="0" result="BackgroundImageFix"/>
<feBlend mode="normal" in="SourceGraphic" in2="BackgroundImageFix" result="shape"/>
<feColorMatrix in="SourceAlpha" type="matrix" values="0 0 0 0 0 0 0 0 0 0 0 0 0 0 0 0 0 0 127 0" result="hardAlpha"/>
<feOffset/>
<feGaussianBlur stdDeviation="2"/>
<feComposite in2="hardAlpha" operator="arithmetic" k2="-1" k3="1"/>
<feColorMatrix type="matrix" values="0 0 0 0 0 0 0 0 0 0 0 0 0 0 0 0 0 0 0.15 0"/>
<feBlend mode="normal" in2="shape" result="effect1_innerShadow_240_4144"/>
</filter>
</defs>
</svg>
