<svg width="12" height="12" viewBox="0 0 12 12" fill="none" xmlns="http://www.w3.org/2000/svg">
<path d="M1 9.73548C1 9.06451 1.26654 8.42101 1.741 7.94656C2.21545 7.47211 2.85894 7.20557 3.52992 7.20557H8.58975C9.26073 7.20557 9.90422 7.47211 10.3787 7.94656C10.8531 8.42101 11.1197 9.06451 11.1197 9.73548C11.1197 10.071 10.9864 10.3927 10.7492 10.6299C10.5119 10.8672 10.1902 11.0004 9.85471 11.0004H2.26496C1.92947 11.0004 1.60772 10.8672 1.3705 10.6299C1.13327 10.3927 1 10.071 1 9.73548Z" fill="#666666" stroke="#666666" stroke-linejoin="round"/>
<path d="M6.06004 4.79488C7.10796 4.79488 7.95747 3.94536 7.95747 2.89744C7.95747 1.84951 7.10796 1 6.06004 1C5.01211 1 4.1626 1.84951 4.1626 2.89744C4.1626 3.94536 5.01211 4.79488 6.06004 4.79488Z" fill="#666666" stroke="#666666" stroke-width="2"/>
</svg>
