<svg width="24" height="24" viewBox="0 0 24 24" fill="none" xmlns="http://www.w3.org/2000/svg">
<path d="M13.3686 3.91977H13.3687C13.8861 3.91974 14.3839 4.11742 14.7603 4.47237L15.317 3.88204L14.7603 4.47237C15.1341 4.82474 15.3601 5.30566 15.393 5.81795L15.397 5.95972V9.73458V10.5459H16.2084H18.1016L18.1017 10.5459C18.5988 10.5459 19.0786 10.7283 19.45 11.0586C19.8186 11.3863 20.055 11.837 20.1153 12.3263L20.1263 12.4542L20.1289 12.5446L20.1192 12.6389L19.1773 17.3505C18.8611 18.6821 18.0281 19.3439 17.333 19.3435L17.1945 19.3367L17.1748 19.3358H17.155H9.58234C9.58231 19.3358 9.58227 19.3358 9.58224 19.3358C9.54915 19.3358 9.51723 19.3236 9.4925 19.3016C9.47095 19.2824 9.45618 19.257 9.45016 19.229L9.44701 19.1763L9.44796 10.1746C9.44798 10.1509 9.45424 10.1276 9.46611 10.1071L8.76365 9.70105L9.46611 10.1071C9.47797 10.0866 9.49503 10.0695 9.51557 10.0577L9.51592 10.0575C10.0348 9.75756 10.4718 9.33456 10.7885 8.82579C11.1052 8.31702 11.2917 7.73812 11.3318 7.14018L11.3326 7.12715L11.3331 7.1141L11.3397 6.92289L11.3402 6.90884V6.89479V5.94819C11.3402 5.41022 11.5539 4.89428 11.9343 4.51388C12.3147 4.13348 12.8307 3.91977 13.3686 3.91977ZM4.84925 19.3358H4.84899C4.57606 19.3359 4.31318 19.2328 4.11306 19.0472L3.56136 19.6421L4.11305 19.0472C3.9165 18.8649 3.79474 18.6163 3.77106 18.3496L3.76742 18.2404V11.6278L3.76742 11.6275C3.76734 11.3546 3.87042 11.0917 4.056 10.8916C4.23827 10.695 4.4869 10.5733 4.75357 10.5496L4.86276 10.5459L5.79574 10.5459C5.79578 10.5459 5.79581 10.5459 5.79585 10.5459C5.82893 10.546 5.86086 10.5581 5.88558 10.5801C5.90713 10.5993 5.9219 10.6247 5.92792 10.6527L5.93108 10.7054V19.2004C5.93108 19.2005 5.93108 19.2005 5.93108 19.2006C5.93105 19.2336 5.91889 19.2656 5.8969 19.2903L6.50323 19.8294L5.8969 19.2903C5.87774 19.3118 5.85228 19.3266 5.82431 19.3326L5.77159 19.3358H4.84925Z" stroke="#666666" stroke-width="1.62274"/>
</svg>
