<svg width="24" height="24" viewBox="0 0 24 24" fill="none" xmlns="http://www.w3.org/2000/svg">
<path d="M13.92 7.91998V5.91998C13.92 5.38955 13.7093 4.88084 13.3342 4.50577C12.9591 4.1307 12.4504 3.91998 11.92 3.91998H4.91998C4.38955 3.91998 3.88084 4.1307 3.50577 4.50577C3.1307 4.88084 2.91998 5.38955 2.91998 5.91998V17.92C2.91998 18.4504 3.1307 18.9591 3.50577 19.3342C3.88084 19.7093 4.38955 19.92 4.91998 19.92H11.92C12.4504 19.92 12.9591 19.7093 13.3342 19.3342C13.7093 18.9591 13.92 18.4504 13.92 17.92V15.92" stroke="#666666" stroke-width="2" stroke-linecap="round" stroke-linejoin="round"/>
<path d="M8.91998 11.92H20.92M20.92 11.92L17.92 8.91998M20.92 11.92L17.92 14.92" stroke="#666666" stroke-width="2" stroke-linecap="round" stroke-linejoin="round"/>
</svg>
